ISO-10303-21;
HEADER;
FILE_DESCRIPTION (( 'STEP AP203' ),
    '1' );
FILE_NAME ('Part3.STEP',
    '2026-07-29T00:06:15',
    ( '' ),
    ( '' ),
    'SwSTEP 2.0',
    'SolidWorks 2026',
    '' );
FILE_SCHEMA (( 'CONFIG_CONTROL_DESIGN' ));
ENDSEC;

DATA;
#1 = TOROIDAL_SURFACE ( 'NONE', #462, 2.671572875253819035, 2.000000000000000000 ) ;
#2 = EDGE_LOOP ( 'NONE', ( #1037, #173 ) ) ;
#3 = DIRECTION ( 'NONE',  ( 0.000000000000000000, 0.000000000000000000, 1.000000000000000000 ) ) ;
#4 = EDGE_CURVE ( 'NONE', #453, #604, #299, .T. ) ;
#5 = CYLINDRICAL_SURFACE ( 'NONE', #237, 1.750000000000001554 ) ;
#6 = CARTESIAN_POINT ( 'NONE',  ( 0.000000000000000000, 6.750000000000000000, 20.00000000000000000 ) ) ;
#7 = VERTEX_POINT ( 'NONE', #506 ) ;
#8 = CYLINDRICAL_SURFACE ( 'NONE', #943, 2.000000000000000000 ) ;
#9 = AXIS2_PLACEMENT_3D ( 'NONE', #1018, #204, #730 ) ;
#10 = DIRECTION ( 'NONE',  ( 0.000000000000000000, 0.7071067811865487940, 0.7071067811865463515 ) ) ;
#11 = FACE_OUTER_BOUND ( 'NONE', #476, .T. ) ;
#12 = ORIENTED_EDGE ( 'NONE', *, *, #394, .F. ) ;
#13 = DIRECTION ( 'NONE',  ( 0.000000000000000000, 0.000000000000000000, 1.000000000000000000 ) ) ;
#14 = CARTESIAN_POINT ( 'NONE',  ( 1.500000000000000444, 8.164213562373092259, -5.585786437626917511 ) ) ;
#15 = APPROVAL ( #239, 'UNSPECIFIED' ) ;
#16 = CARTESIAN_POINT ( 'NONE',  ( 0.000000000000000000, 8.750000000000000000, 20.00000000000000000 ) ) ;
#17 = ORIENTED_EDGE ( 'NONE', *, *, #481, .F. ) ;
#18 = AXIS2_PLACEMENT_3D ( 'NONE', #524, #147, #1059 ) ;
#19 = ORIENTED_EDGE ( 'NONE', *, *, #394, .T. ) ;
#20 = EDGE_CURVE ( 'NONE', #604, #453, #554, .T. ) ;
#21 = FACE_BOUND ( 'NONE', #952, .T. ) ;
#22 = ADVANCED_FACE ( 'NONE', ( #423 ), #715, .F. ) ;
#23 = FACE_OUTER_BOUND ( 'NONE', #480, .T. ) ;
#24 = ORIENTED_EDGE ( 'NONE', *, *, #321, .T. ) ;
#25 = PRODUCT_DEFINITION_FORMATION_WITH_SPECIFIED_SOURCE ( 'ANY', '', #220, .NOT_KNOWN. ) ;
#26 = DIRECTION ( 'NONE',  ( 0.000000000000000000, 0.000000000000000000, -1.000000000000000000 ) ) ;
#27 = AXIS2_PLACEMENT_3D ( 'NONE', #930, #456, #461 ) ;
#28 = DIRECTION ( 'NONE',  ( 0.000000000000000000, 0.000000000000000000, -1.000000000000000000 ) ) ;
#29 = EDGE_LOOP ( 'NONE', ( #409, #537, #871, #438 ) ) ;
#30 = EDGE_CURVE ( 'NONE', #241, #632, #267, .T. ) ;
#31 = DIRECTION ( 'NONE',  ( 0.000000000000000000, -1.000000000000000000, 0.000000000000000000 ) ) ;
#32 = PLANE ( 'NONE',  #504 ) ;
#33 = VECTOR ( 'NONE', #1002, 1000.000000000000000 ) ;
#34 = ORIENTED_EDGE ( 'NONE', *, *, #53, .T. ) ;
#35 = APPROVAL_DATE_TIME ( #856, #15 ) ;
#36 = ORIENTED_EDGE ( 'NONE', *, *, #1140, .T. ) ;
#37 = AXIS2_PLACEMENT_3D ( 'NONE', #830, #373, #86 ) ;
#38 = PLANE ( 'NONE',  #363 ) ;
#39 = DIRECTION ( 'NONE',  ( 0.000000000000000000, -1.000000000000000000, 0.000000000000000000 ) ) ;
#40 = VERTEX_POINT ( 'NONE', #984 ) ;
#41 = PERSON_AND_ORGANIZATION_ROLE ( 'creator' ) ;
#42 = VECTOR ( 'NONE', #776, 1000.000000000000000 ) ;
#43 = PRODUCT_DEFINITION_SHAPE ( 'NONE', 'NONE',  #864 ) ;
#44 = VERTEX_POINT ( 'NONE', #894 ) ;
#45 = CARTESIAN_POINT ( 'NONE',  ( 5.585786437626916623, 8.164213562373094035, -1.500000000000001110 ) ) ;
#46 = CARTESIAN_POINT ( 'NONE',  ( 0.000000000000000000, 8.500000000000003553, 0.000000000000000000 ) ) ;
#47 = DIRECTION ( 'NONE',  ( 0.000000000000000000, 0.000000000000000000, 1.000000000000000000 ) ) ;
#48 = DIRECTION ( 'NONE',  ( 1.000000000000000000, 0.000000000000000000, 0.000000000000000000 ) ) ;
#49 = ORIENTED_EDGE ( 'NONE', *, *, #590, .F. ) ;
#50 = LINE ( 'NONE', #858, #58 ) ;
#51 = CARTESIAN_POINT ( 'NONE',  ( -2.115389735758620215, 8.750000000000000000, 21.25000000000001066 ) ) ;
#52 = ORIENTED_EDGE ( 'NONE', *, *, #533, .T. ) ;
#53 = EDGE_CURVE ( 'NONE', #522, #985, #253, .T. ) ;
#54 = APPROVAL_ROLE ( '' ) ;
#55 = ORIENTED_EDGE ( 'NONE', *, *, #286, .F. ) ;
#56 = CARTESIAN_POINT ( 'NONE',  ( 1.656083510212884802, 8.640819780516068249, 21.35918021948394596 ) ) ;
#57 = EDGE_CURVE ( 'NONE', #532, #632, #708, .T. ) ;
#58 = VECTOR ( 'NONE', #540, 1000.000000000000000 ) ;
#59 = ADVANCED_FACE ( 'NONE', ( #535 ), #1009, .F. ) ;
#60 = LINE ( 'NONE', #1073, #488 ) ;
#61 = ORIENTED_EDGE ( 'NONE', *, *, #798, .F. ) ;
#62 = APPROVAL_ROLE ( '' ) ;
#63 = ORIENTED_EDGE ( 'NONE', *, *, #498, .T. ) ;
#64 = FACE_OUTER_BOUND ( 'NONE', #928, .T. ) ;
#65 = DIRECTION ( 'NONE',  ( -0.000000000000000000, 1.000000000000000000, -0.000000000000000000 ) ) ;
#66 = B_SPLINE_CURVE_WITH_KNOTS ( 'NONE', 3,
 ( #121, #1138, #491, #327, #766, #51 ),
 .UNSPECIFIED., .F., .F.,
 ( 4, 2, 4 ),
 ( 4.180073950106961038E-17, 0.0002924608771833519172, 0.0005849217543666620925 ),
 .UNSPECIFIED. ) ;
#67 = DIRECTION ( 'NONE',  ( -1.146924612216070931E-16, -0.000000000000000000, -1.000000000000000000 ) ) ;
#68 = ORIENTED_EDGE ( 'NONE', *, *, #1160, .T. ) ;
#69 = DIRECTION ( 'NONE',  ( -1.146924612216070931E-16, 1.743152798421054148E-32, -1.000000000000000000 ) ) ;
#70 = CARTESIAN_POINT ( 'NONE',  ( -0.2821077124117551405, 8.249999999999991118, 21.75000000000001066 ) ) ;
#71 = CARTESIAN_POINT ( 'NONE',  ( 1.500000000000000444, 6.750000000000006217, -7.000000000000000000 ) ) ;
#72 = EDGE_CURVE ( 'NONE', #842, #855, #994, .T. ) ;
#73 = VECTOR ( 'NONE', #1061, 1000.000000000000000 ) ;
#74 = ORIENTED_EDGE ( 'NONE', *, *, #614, .F. ) ;
#75 = DIRECTION ( 'NONE',  ( 0.000000000000000000, 1.000000000000000000, 0.000000000000000000 ) ) ;
#76 = EDGE_CURVE ( 'NONE', #207, #288, #93, .T. ) ;
#77 = CARTESIAN_POINT ( 'NONE',  ( 7.000000000000003553, 6.750000000000000000, 23.25000000000000000 ) ) ;
#78 = DIRECTION ( 'NONE',  ( 0.000000000000000000, 0.000000000000000000, 1.000000000000000000 ) ) ;
#79 = VERTEX_POINT ( 'NONE', #442 ) ;
#80 = DIRECTION ( 'NONE',  ( 0.000000000000000000, 1.000000000000000000, 0.000000000000000000 ) ) ;
#81 = AXIS2_PLACEMENT_3D ( 'NONE', #944, #216, #510 ) ;
#82 = CARTESIAN_POINT ( 'NONE',  ( 0.000000000000000000, 7.550000000000000711, 20.00000000000000000 ) ) ;
#83 = CONICAL_SURFACE ( 'NONE', #448, 3.500000000000011990, 0.7853981633974465026 ) ;
#84 = CARTESIAN_POINT ( 'NONE',  ( 5.817072295949926440E-16, 6.750000000000000000, 4.749999999999999112 ) ) ;
#85 = VERTEX_POINT ( 'NONE', #1154 ) ;
#86 = DIRECTION ( 'NONE',  ( 0.000000000000000000, 0.000000000000000000, -1.000000000000000000 ) ) ;
#87 = AXIS2_PLACEMENT_3D ( 'NONE', #962, #586, #942 ) ;
#88 = CARTESIAN_POINT ( 'NONE',  ( 0.000000000000000000, 3.700000000000000178, 0.000000000000000000 ) ) ;
#89 = DIRECTION ( 'NONE',  ( 0.000000000000000000, 1.000000000000000000, 0.000000000000000000 ) ) ;
#90 = EDGE_CURVE ( 'NONE', #303, #512, #149, .T. ) ;
#91 = EDGE_LOOP ( 'NONE', ( #1048, #1159 ) ) ;
#92 = CARTESIAN_POINT ( 'NONE',  ( 1.902649807907111045E-16, 3.700000000000000178, 1.553631470912111068 ) ) ;
#93 = CIRCLE ( 'NONE', #1115, 2.375000000000000000 ) ;
#94 = VECTOR ( 'NONE', #950, 999.9999999999998863 ) ;
#95 = DIRECTION ( 'NONE',  ( -0.000000000000000000, 1.000000000000000000, -0.000000000000000000 ) ) ;
#96 = CYLINDRICAL_SURFACE ( 'NONE', #231, 1.100000000000000311 ) ;
#97 = CIRCLE ( 'NONE', #710, 4.749999999999999112 ) ;
#98 = ORIENTED_EDGE ( 'NONE', *, *, #410, .T. ) ;
#99 = FACE_OUTER_BOUND ( 'NONE', #137, .T. ) ;
#100 = CARTESIAN_POINT ( 'NONE',  ( 4.171572875253825252, 8.750000000000000000, 21.25000000000001066 ) ) ;
#101 = CARTESIAN_POINT ( 'NONE',  ( 0.000000000000000000, 0.2500000000000011102, -2.375000000000000000 ) ) ;
#102 = EDGE_LOOP ( 'NONE', ( #1130, #128 ) ) ;
#103 = CC_DESIGN_DATE_AND_TIME_ASSIGNMENT ( #882, #247, ( #560 ) ) ;
#104 = CARTESIAN_POINT ( 'NONE',  ( 0.000000000000000000, 2.700000000000000178, -2.375000000000000000 ) ) ;
#105 = CARTESIAN_POINT ( 'NONE',  ( 0.000000000000000000, 7.550000000000000711, 20.00000000000000000 ) ) ;
#106 = CARTESIAN_POINT ( 'NONE',  ( 0.6927878049865204835, 8.316043075943428065, 21.68395692405657726 ) ) ;
#107 = ORIENTED_EDGE ( 'NONE', *, *, #159, .F. ) ;
#108 = EDGE_CURVE ( 'NONE', #501, #998, #822, .T. ) ;
#109 = EDGE_CURVE ( 'NONE', #855, #757, #912, .T. ) ;
#110 = CYLINDRICAL_SURFACE ( 'NONE', #27, 1.553631470912111068 ) ;
#111 = DIRECTION ( 'NONE',  ( 0.000000000000000000, 0.000000000000000000, -1.000000000000000000 ) ) ;
#112 = EDGE_LOOP ( 'NONE', ( #1155, #249, #229, #419 ) ) ;
#113 = ORIENTED_EDGE ( 'NONE', *, *, #920, .T. ) ;
#114 = CARTESIAN_POINT ( 'NONE',  ( 0.000000000000000000, 8.500000000000003553, 0.000000000000000000 ) ) ;
#115 = DIRECTION ( 'NONE',  ( 0.000000000000000000, 0.000000000000000000, -1.000000000000000000 ) ) ;
#116 = ORIENTED_EDGE ( 'NONE', *, *, #1027, .T. ) ;
#117 =( GEOMETRIC_REPRESENTATION_CONTEXT ( 3 ) GLOBAL_UNCERTAINTY_ASSIGNED_CONTEXT ( ( #349 ) ) GLOBAL_UNIT_ASSIGNED_CONTEXT ( ( #551, #953, #129 ) ) REPRESENTATION_CONTEXT ( 'NONE', 'WORKASPACE' ) );
#118 = CARTESIAN_POINT ( 'NONE',  ( -6.999999999999999112, 6.750000000000007105, -1.499999999999999556 ) ) ;
#119 = VECTOR ( 'NONE', #359, 1000.000000000000000 ) ;
#120 = EDGE_CURVE ( 'NONE', #804, #205, #437, .T. ) ;
#121 = CARTESIAN_POINT ( 'NONE',  ( -1.573173141829877331, 8.603553390596378136, 21.39644660940363607 ) ) ;
#122 = ORIENTED_EDGE ( 'NONE', *, *, #731, .F. ) ;
#123 = APPROVAL_DATE_TIME ( #335, #763 ) ;
#124 = ORIENTED_EDGE ( 'NONE', *, *, #915, .F. ) ;
#125 = DIRECTION ( 'NONE',  ( 1.146924612216070931E-16, -0.000000000000000000, 1.000000000000000000 ) ) ;
#126 = CIRCLE ( 'NONE', #222, 1.553631470912111068 ) ;
#127 = CARTESIAN_POINT ( 'NONE',  ( 0.000000000000000000, 0.4999999999999961142, 0.000000000000000000 ) ) ;
#128 = ORIENTED_EDGE ( 'NONE', *, *, #646, .F. ) ;
#129 =( NAMED_UNIT ( * ) SI_UNIT ( $, .STERADIAN. ) SOLID_ANGLE_UNIT ( ) );
#130 = ORIENTED_EDGE ( 'NONE', *, *, #427, .T. ) ;
#131 = DIRECTION ( 'NONE',  ( 0.000000000000000000, 1.000000000000000000, 0.000000000000000000 ) ) ;
#132 = FACE_OUTER_BOUND ( 'NONE', #377, .T. ) ;
#133 = ORIENTED_EDGE ( 'NONE', *, *, #108, .T. ) ;
#134 = PERSON_AND_ORGANIZATION ( #810, #791 ) ;
#135 = CIRCLE ( 'NONE', #290, 2.000000000000000000 ) ;
#136 =( BOUNDED_CURVE ( )  B_SPLINE_CURVE ( 3, ( #255, #968, #515, #888 ),
 .UNSPECIFIED., .F., .F. ) 
 B_SPLINE_CURVE_WITH_KNOTS ( ( 4, 4 ),
 ( 3.141592653589793116, 3.926990816987241839 ),
 .UNSPECIFIED. ) 
 CURVE ( )  GEOMETRIC_REPRESENTATION_ITEM ( )  RATIONAL_B_SPLINE_CURVE ( ( 1.000000000000000000, 0.9492530216741910110, 0.9492530216741910110, 1.000000000000000000 ) ) 
 REPRESENTATION_ITEM ( '' )  );
#137 = EDGE_LOOP ( 'NONE', ( #808, #1057, #1129, #61 ) ) ;
#138 = B_SPLINE_CURVE_WITH_KNOTS ( 'NONE', 3,
 ( #165, #70, #1145, #983, #719, #796 ),
 .UNSPECIFIED., .F., .F.,
 ( 4, 2, 4 ),
 ( 1.738629853326564465E-17, 0.0008344880403552149212, 0.001668976080710412495 ),
 .UNSPECIFIED. ) ;
#139 = ADVANCED_FACE ( 'NONE', ( #989 ), #171, .F. ) ;
#140 = CARTESIAN_POINT ( 'NONE',  ( 2.115389735758619771, 8.750000000000000000, 21.25000000000001066 ) ) ;
#141 = CARTESIAN_POINT ( 'NONE',  ( 0.000000000000000000, 6.750000000000000000, -4.749999999999999112 ) ) ;
#142 = ORIENTED_EDGE ( 'NONE', *, *, #109, .T. ) ;
#143 = PERSON_AND_ORGANIZATION ( #810, #791 ) ;
#144 = VECTOR ( 'NONE', #10, 1000.000000000000000 ) ;
#145 = ADVANCED_FACE ( 'NONE', ( #166, #353 ), #432, .F. ) ;
#146 = ORIENTED_EDGE ( 'NONE', *, *, #517, .T. ) ;
#147 = DIRECTION ( 'NONE',  ( 0.000000000000000000, 1.000000000000000000, 0.000000000000000000 ) ) ;
#148 = FACE_OUTER_BOUND ( 'NONE', #1086, .T. ) ;
#149 = CIRCLE ( 'NONE', #245, 2.103553390593281058 ) ;
#150 = ORIENTED_EDGE ( 'NONE', *, *, #405, .T. ) ;
#151 = APPROVAL_DATE_TIME ( #602, #313 ) ;
#152 = EDGE_LOOP ( 'NONE', ( #188, #142, #829, #232, #133, #68, #584, #150 ) ) ;
#153 = CARTESIAN_POINT ( 'NONE',  ( 0.000000000000000000, 6.750000000000000000, 0.000000000000000000 ) ) ;
#154 = CONICAL_SURFACE ( 'NONE', #918, 1.750000000000001554, 0.7853981633974477239 ) ;
#155 = FACE_OUTER_BOUND ( 'NONE', #981, .T. ) ;
#156 = CARTESIAN_POINT ( 'NONE',  ( 0.000000000000000000, 8.750000000000000000, 20.00000000000000000 ) ) ;
#157 = ORIENTED_EDGE ( 'NONE', *, *, #1147, .T. ) ;
#158 = CARTESIAN_POINT ( 'NONE',  ( -1.499999999999999556, 6.750000000000000000, -7.000000000000000000 ) ) ;
#159 = EDGE_CURVE ( 'NONE', #298, #44, #1079, .T. ) ;
#160 = CARTESIAN_POINT ( 'NONE',  ( 0.000000000000000000, 5.700000000000000178, -2.750000000000000000 ) ) ;
#161 = CARTESIAN_POINT ( 'NONE',  ( 0.000000000000000000, 8.750000000000000000, 20.00000000000000000 ) ) ;
#162 = ORIENTED_EDGE ( 'NONE', *, *, #1080, .T. ) ;
#163 = EDGE_CURVE ( 'NONE', #1006, #443, #636, .T. ) ;
#164 = FACE_OUTER_BOUND ( 'NONE', #916, .T. ) ;
#165 = CARTESIAN_POINT ( 'NONE',  ( -1.221450419903109817E-14, 8.249999999999877431, 21.75000000000013500 ) ) ;
#166 = FACE_OUTER_BOUND ( 'NONE', #704, .T. ) ;
#167 = ORIENTED_EDGE ( 'NONE', *, *, #839, .F. ) ;
#168 = CARTESIAN_POINT ( 'NONE',  ( 0.000000000000000000, 0.000000000000000000, 0.000000000000000000 ) ) ;
#169 = LINE ( 'NONE', #897, #73 ) ;
#170 = CIRCLE ( 'NONE', #1085, 4.749999999999999112 ) ;
#171 = CYLINDRICAL_SURFACE ( 'NONE', #372, 2.375000000000000000 ) ;
#172 = B_SPLINE_CURVE_WITH_KNOTS ( 'NONE', 3,
 ( #201, #279, #1094, #106, #653, #567, #387, #921 ),
 .UNSPECIFIED., .F., .F.,
 ( 4, 2, 2, 4 ),
 ( 0.0003594772421511843318, 0.001189899047451250949, 0.001605109950101282767, 0.002020320852751314802 ),
 .UNSPECIFIED. ) ;
#173 = ORIENTED_EDGE ( 'NONE', *, *, #954, .T. ) ;
#174 = DIRECTION ( 'NONE',  ( 0.000000000000000000, 0.7071067811865456854, 0.7071067811865493491 ) ) ;
#175 = CC_DESIGN_PERSON_AND_ORGANIZATION_ASSIGNMENT ( #703, #41, ( #25 ) ) ;
#176 = LOCAL_TIME ( 17, 6, 15.00000000000000000, #424 ) ;
#177 = CARTESIAN_POINT ( 'NONE',  ( 1.347111479062088257E-16, 6.750000000000000000, 21.10000000000000142 ) ) ;
#178 = EDGE_CURVE ( 'NONE', #85, #1020, #276, .T. ) ;
#179 = APPROVAL_PERSON_ORGANIZATION ( #230, #313, #54 ) ;
#180 = CARTESIAN_POINT ( 'NONE',  ( 5.000000000000017764, 8.750000000000000000, 21.25000000000001066 ) ) ;
#181 = ORIENTED_EDGE ( 'NONE', *, *, #120, .T. ) ;
#182 = AXIS2_PLACEMENT_3D ( 'NONE', #435, #352, #347 ) ;
#183 = EDGE_CURVE ( 'NONE', #589, #324, #619, .T. ) ;
#184 = DIRECTION ( 'NONE',  ( -1.146924612216070931E-16, 0.000000000000000000, -1.000000000000000000 ) ) ;
#185 = CONICAL_SURFACE ( 'NONE', #1019, 2.750000000000000000, 0.7853981633974533860 ) ;
#186 = FACE_OUTER_BOUND ( 'NONE', #280, .T. ) ;
#187 = FACE_OUTER_BOUND ( 'NONE', #404, .T. ) ;
#188 = ORIENTED_EDGE ( 'NONE', *, *, #72, .T. ) ;
#189 = DIRECTION ( 'NONE',  ( 0.000000000000000000, 0.000000000000000000, 1.000000000000000000 ) ) ;
#190 = DIRECTION ( 'NONE',  ( -0.000000000000000000, 1.000000000000000000, -0.000000000000000000 ) ) ;
#191 = CARTESIAN_POINT ( 'NONE',  ( -6.999999999999996447, 6.750000000000000000, 23.25000000000000000 ) ) ;
#192 = VECTOR ( 'NONE', #1032, 1000.000000000000000 ) ;
#193 = ORIENTED_EDGE ( 'NONE', *, *, #644, .T. ) ;
#194 = DIRECTION ( 'NONE',  ( 0.000000000000000000, 0.000000000000000000, -1.000000000000000000 ) ) ;
#195 = AXIS2_PLACEMENT_3D ( 'NONE', #1114, #673, #771 ) ;
#196 = CC_DESIGN_APPROVAL ( #15, ( #560 ) ) ;
#197 = EDGE_CURVE ( 'NONE', #881, #492, #343, .T. ) ;
#198 = CARTESIAN_POINT ( 'NONE',  ( -6.999999999999996447, 6.750000000000000000, 23.25000000000000000 ) ) ;
#199 = ORIENTED_EDGE ( 'NONE', *, *, #539, .T. ) ;
#200 = DIRECTION ( 'NONE',  ( 0.000000000000000000, 0.000000000000000000, 1.000000000000000000 ) ) ;
#201 = CARTESIAN_POINT ( 'NONE',  ( 1.573173141822895138, 8.603553390593274841, 21.39644660940673759 ) ) ;
#202 = ORIENTED_EDGE ( 'NONE', *, *, #1108, .T. ) ;
#203 = CARTESIAN_POINT ( 'NONE',  ( 5.000000000000017764, 8.750000000000000000, 21.25000000000001066 ) ) ;
#204 = DIRECTION ( 'NONE',  ( 0.000000000000000000, 0.7071067811865463515, 0.7071067811865487940 ) ) ;
#205 = VERTEX_POINT ( 'NONE', #297 ) ;
#206 = AXIS2_PLACEMENT_3D ( 'NONE', #168, #80, #421 ) ;
#207 = VERTEX_POINT ( 'NONE', #561 ) ;
#208 = FACE_OUTER_BOUND ( 'NONE', #1095, .T. ) ;
#209 = CC_DESIGN_DATE_AND_TIME_ASSIGNMENT ( #869, #965, ( #864 ) ) ;
#210 = DIRECTION ( 'NONE',  ( -1.533293416683371426E-16, 6.649600213703334692E-32, -1.000000000000000000 ) ) ;
#211 = EDGE_CURVE ( 'NONE', #690, #985, #215, .T. ) ;
#212 = ORIENTED_EDGE ( 'NONE', *, *, #520, .F. ) ;
#213 = DIRECTION ( 'NONE',  ( 0.000000000000000000, 1.000000000000000000, 0.000000000000000000 ) ) ;
#214 = DIRECTION ( 'NONE',  ( 0.000000000000000000, 0.000000000000000000, 1.000000000000000000 ) ) ;
#215 = CIRCLE ( 'NONE', #794, 1.100000000000000311 ) ;
#216 = DIRECTION ( 'NONE',  ( 0.000000000000000000, -1.000000000000000000, 0.000000000000000000 ) ) ;
#217 = VERTEX_POINT ( 'NONE', #657 ) ;
#218 = CALENDAR_DATE ( 2026, 28, 7 ) ;
#219 = VERTEX_POINT ( 'NONE', #828 ) ;
#220 = PRODUCT ( 'Part3', 'Part3', '', ( #521 ) ) ;
#221 = DIRECTION ( 'NONE',  ( -0.000000000000000000, -1.000000000000000000, -0.000000000000000000 ) ) ;
#222 = AXIS2_PLACEMENT_3D ( 'NONE', #977, #609, #1168 ) ;
#223 = FACE_OUTER_BOUND ( 'NONE', #543, .T. ) ;
#224 = DIRECTION ( 'NONE',  ( 0.000000000000000000, 1.000000000000000000, 0.000000000000000000 ) ) ;
#225 = PERSON_AND_ORGANIZATION ( #810, #791 ) ;
#226 = VERTEX_POINT ( 'NONE', #735 ) ;
#227 = LINE ( 'NONE', #693, #1050 ) ;
#228 = ADVANCED_FACE ( 'NONE', ( #23 ), #845, .T. ) ;
#229 = ORIENTED_EDGE ( 'NONE', *, *, #358, .F. ) ;
#230 = PERSON_AND_ORGANIZATION ( #810, #791 ) ;
#231 = AXIS2_PLACEMENT_3D ( 'NONE', #16, #382, #748 ) ;
#232 = ORIENTED_EDGE ( 'NONE', *, *, #614, .T. ) ;
#233 = ADVANCED_FACE ( 'NONE', ( #741 ), #986, .F. ) ;
#234 = LOCAL_TIME ( 17, 6, 15.00000000000000000, #1134 ) ;
#235 = DIRECTION ( 'NONE',  ( -0.000000000000000000, 1.000000000000000000, -0.000000000000000000 ) ) ;
#236 = DIRECTION ( 'NONE',  ( 0.000000000000000000, 0.000000000000000000, 1.000000000000000000 ) ) ;
#237 = AXIS2_PLACEMENT_3D ( 'NONE', #821, #552, #200 ) ;
#238 = ORIENTED_EDGE ( 'NONE', *, *, #321, .F. ) ;
#239 = APPROVAL_STATUS ( 'not_yet_approved' ) ;
#240 = AXIS2_PLACEMENT_3D ( 'NONE', #509, #580, #214 ) ;
#241 = VERTEX_POINT ( 'NONE', #832 ) ;
#242 = CARTESIAN_POINT ( 'NONE',  ( 0.000000000000000000, 6.750000000000000000, 18.89999999999999858 ) ) ;
#243 = EDGE_CURVE ( 'NONE', #40, #85, #172, .T. ) ;
#244 = DIRECTION ( 'NONE',  ( 0.000000000000000000, -1.000000000000000000, 0.000000000000000000 ) ) ;
#245 = AXIS2_PLACEMENT_3D ( 'NONE', #348, #257, #908 ) ;
#246 = DIRECTION ( 'NONE',  ( 0.000000000000000000, 0.000000000000000000, 1.000000000000000000 ) ) ;
#247 = DATE_TIME_ROLE ( 'classification_date' ) ;
#248 = AXIS2_PLACEMENT_3D ( 'NONE', #802, #332, #541 ) ;
#249 = ORIENTED_EDGE ( 'NONE', *, *, #711, .T. ) ;
#250 = FACE_OUTER_BOUND ( 'NONE', #1036, .T. ) ;
#251 = CIRCLE ( 'NONE', #826, 1.750000000000001554 ) ;
#252 = DIRECTION ( 'NONE',  ( 0.000000000000000000, 0.000000000000000000, 1.000000000000000000 ) ) ;
#253 = LINE ( 'NONE', #1074, #973 ) ;
#254 = ORIENTED_EDGE ( 'NONE', *, *, #783, .F. ) ;
#255 = CARTESIAN_POINT ( 'NONE',  ( -4.171572875253816370, 8.750000000000000000, 21.25000000000001066 ) ) ;
#256 = CARTESIAN_POINT ( 'NONE',  ( 2.908536147974963713E-16, 6.750000000000000000, 2.375000000000000000 ) ) ;
#257 = DIRECTION ( 'NONE',  ( 0.000000000000000000, 1.000000000000000000, 0.000000000000000000 ) ) ;
#258 = EDGE_LOOP ( 'NONE', ( #862, #113, #767, #370 ) ) ;
#259 = FACE_BOUND ( 'NONE', #1151, .T. ) ;
#260 = LINE ( 'NONE', #723, #913 ) ;
#261 = DIRECTION ( 'NONE',  ( 0.5773502691896252870, 0.5773502691896270633, -0.5773502691896250649 ) ) ;
#262 = ORIENTED_EDGE ( 'NONE', *, *, #427, .F. ) ;
#263 = CARTESIAN_POINT ( 'NONE',  ( 0.000000000000000000, 7.550000000000000711, 20.00000000000000000 ) ) ;
#264 = DIRECTION ( 'NONE',  ( -0.000000000000000000, -1.000000000000000000, -0.000000000000000000 ) ) ;
#265 = AXIS2_PLACEMENT_3D ( 'NONE', #351, #884, #699 ) ;
#266 = EDGE_CURVE ( 'NONE', #288, #287, #667, .T. ) ;
#267 = LINE ( 'NONE', #71, #33 ) ;
#268 = EDGE_CURVE ( 'NONE', #344, #532, #1128, .T. ) ;
#269 = ORIENTED_EDGE ( 'NONE', *, *, #494, .T. ) ;
#270 = CARTESIAN_POINT ( 'NONE',  ( 2.143131898507867311E-16, 8.249999999999992895, 18.25000000000000000 ) ) ;
#271 = CARTESIAN_POINT ( 'NONE',  ( 0.000000000000000000, 7.550000000000000711, 20.00000000000000000 ) ) ;
#272 = AXIS2_PLACEMENT_3D ( 'NONE', #361, #465, #639 ) ;
#273 = FACE_BOUND ( 'NONE', #1135, .T. ) ;
#274 = ORIENTED_EDGE ( 'NONE', *, *, #395, .T. ) ;
#275 = CIRCLE ( 'NONE', #905, 2.750000000000000000 ) ;
#276 = CIRCLE ( 'NONE', #833, 1.750000000000001554 ) ;
#277 = DIRECTION ( 'NONE',  ( 0.000000000000000000, 0.000000000000000000, 1.000000000000000000 ) ) ;
#278 = LINE ( 'NONE', #1008, #664 ) ;
#279 = CARTESIAN_POINT ( 'NONE',  ( 1.338616563917049751, 8.498125359564882686, 21.50187464043512975 ) ) ;
#280 = EDGE_LOOP ( 'NONE', ( #964, #1044, #63, #709 ) ) ;
#281 = CONICAL_SURFACE ( 'NONE', #592, 4.749999999999999112, 0.7853981633974509435 ) ;
#282 = CARTESIAN_POINT ( 'NONE',  ( 0.000000000000000000, 8.750000000000000000, -4.171572875253819923 ) ) ;
#283 = ADVANCED_FACE ( 'NONE', ( #661 ), #1088, .T. ) ;
#284 = FACE_OUTER_BOUND ( 'NONE', #784, .T. ) ;
#285 = DIRECTION ( 'NONE',  ( 8.659560562354979697E-17, 0.7071067811865439090, -0.7071067811865512365 ) ) ;
#286 = EDGE_CURVE ( 'NONE', #298, #589, #823, .T. ) ;
#287 = VERTEX_POINT ( 'NONE', #914 ) ;
#288 = VERTEX_POINT ( 'NONE', #101 ) ;
#289 = DIRECTION ( 'NONE',  ( 0.000000000000000000, -1.000000000000000000, 0.000000000000000000 ) ) ;
#290 = AXIS2_PLACEMENT_3D ( 'NONE', #408, #210, #1047 ) ;
#291 = CARTESIAN_POINT ( 'NONE',  ( 1.500000000000000444, 6.750000000000000000, -4.171572875253819923 ) ) ;
#292 = VECTOR ( 'NONE', #174, 1000.000000000000000 ) ;
#293 = ORIENTED_EDGE ( 'NONE', *, *, #941, .T. ) ;
#294 = ORIENTED_EDGE ( 'NONE', *, *, #1110, .T. ) ;
#295 = DIRECTION ( 'NONE',  ( 0.000000000000000000, 1.000000000000000000, 0.000000000000000000 ) ) ;
#296 = CIRCLE ( 'NONE', #1058, 2.375000000000000000 ) ;
#297 = CARTESIAN_POINT ( 'NONE',  ( 5.585786437626921952, 8.164213562373092259, 21.83578643762691840 ) ) ;
#298 = VERTEX_POINT ( 'NONE', #198 ) ;
#299 = CIRCLE ( 'NONE', #516, 2.750000000000000000 ) ;
#300 = ADVANCED_FACE ( 'NONE', ( #571, #11, #273 ), #1174, .F. ) ;
#301 = CARTESIAN_POINT ( 'NONE',  ( 2.143131898507868544E-16, 8.249999999999992895, 18.25000000000000000 ) ) ;
#302 = CARTESIAN_POINT ( 'NONE',  ( 1.500000000000000444, 6.750000000000000000, -1.500000000000000444 ) ) ;
#303 = VERTEX_POINT ( 'NONE', #1005 ) ;
#304 = CARTESIAN_POINT ( 'NONE',  ( 0.000000000000000000, 0.2500000000000011102, 0.000000000000000000 ) ) ;
#305 = CIRCLE ( 'NONE', #1069, 2.000000000000000000 ) ;
#306 = DIRECTION ( 'NONE',  ( 0.7071067811865489050, 0.7071067811865462405, -8.109981708077367428E-17 ) ) ;
#307 = CARTESIAN_POINT ( 'NONE',  ( 3.367778697655221012E-16, 5.700000000000000178, 2.750000000000000000 ) ) ;
#308 = VERTEX_POINT ( 'NONE', #474 ) ;
#309 = SHAPE_DEFINITION_REPRESENTATION ( #43, #483 ) ;
#310 = ORIENTED_EDGE ( 'NONE', *, *, #819, .F. ) ;
#311 = DIRECTION ( 'NONE',  ( -1.000000000000000000, -0.000000000000000000, -0.000000000000000000 ) ) ;
#312 = VECTOR ( 'NONE', #285, 1000.000000000000000 ) ;
#313 = APPROVAL ( #513, 'UNSPECIFIED' ) ;
#314 = CARTESIAN_POINT ( 'NONE',  ( 0.000000000000000000, 6.750000000000000000, 20.00000000000000000 ) ) ;
#315 = ORIENTED_EDGE ( 'NONE', *, *, #915, .T. ) ;
#316 = VERTEX_POINT ( 'NONE', #840 ) ;
#317 = DIRECTION ( 'NONE',  ( 1.000000000000000000, 0.000000000000000000, 0.000000000000000000 ) ) ;
#318 = ADVANCED_FACE ( 'NONE', ( #187 ), #96, .F. ) ;
#319 = APPLICATION_CONTEXT ( 'configuration controlled 3d designs of mechanical parts and assemblies' ) ;
#320 = DIRECTION ( 'NONE',  ( -0.7071067811865463515, 0.7071067811865487940, 7.666467083416903971E-17 ) ) ;
#321 = EDGE_CURVE ( 'NONE', #632, #998, #1162, .T. ) ;
#322 = EDGE_LOOP ( 'NONE', ( #1105, #514, #157, #772 ) ) ;
#323 = PERSON_AND_ORGANIZATION_ROLE ( 'design_owner' ) ;
#324 = VERTEX_POINT ( 'NONE', #478 ) ;
#325 = AXIS2_PLACEMENT_3D ( 'NONE', #1051, #345, #805 ) ;
#326 = FACE_OUTER_BOUND ( 'NONE', #91, .T. ) ;
#327 = CARTESIAN_POINT ( 'NONE',  ( -1.920236577314627713, 8.729368167229786479, 21.27063183277021707 ) ) ;
#328 = VERTEX_POINT ( 'NONE', #1132 ) ;
#329 = CALENDAR_DATE ( 2026, 28, 7 ) ;
#330 = ORIENTED_EDGE ( 'NONE', *, *, #746, .T. ) ;
#331 = CARTESIAN_POINT ( 'NONE',  ( 0.000000000000000000, 0.4999999999999961142, 0.000000000000000000 ) ) ;
#332 = DIRECTION ( 'NONE',  ( -0.000000000000000000, -1.000000000000000000, -0.000000000000000000 ) ) ;
#333 = AXIS2_PLACEMENT_3D ( 'NONE', #88, #289, #844 ) ;
#334 = DIRECTION ( 'NONE',  ( -0.000000000000000000, -1.000000000000000000, -0.000000000000000000 ) ) ;
#335 = DATE_AND_TIME ( #218, #234 ) ;
#336 = VECTOR ( 'NONE', #311, 1000.000000000000000 ) ;
#337 = ORIENTED_EDGE ( 'NONE', *, *, #728, .T. ) ;
#338 = EDGE_CURVE ( 'NONE', #241, #324, #407, .T. ) ;
#339 = CYLINDRICAL_SURFACE ( 'NONE', #265, 2.000000000000000000 ) ;
#340 = EDGE_CURVE ( 'NONE', #40, #303, #599, .T. ) ;
#341 = CARTESIAN_POINT ( 'NONE',  ( 3.367778697655221012E-16, 14.52817459305202163, 2.750000000000000000 ) ) ;
#342 = CLOSED_SHELL ( 'NONE', ( #59, #1022, #628, #995, #663, #999, #608, #139, #283, #318, #22, #145, #1077, #466, #958, #613, #660, #658, #300, #574, #536, #607, #1127, #371, #976, #873, #228, #980, #902, #820, #1060, #1146, #694, #573, #233, #925, #937, #835 ) ) ;
#343 = LINE ( 'NONE', #463, #312 ) ;
#344 = VERTEX_POINT ( 'NONE', #759 ) ;
#345 = DIRECTION ( 'NONE',  ( 0.000000000000000000, -1.000000000000000000, 0.000000000000000000 ) ) ;
#346 = CONICAL_SURFACE ( 'NONE', #674, 4.749999999999999112, 0.7853981633974509435 ) ;
#347 = DIRECTION ( 'NONE',  ( -1.146924612216070931E-16, 0.000000000000000000, -1.000000000000000000 ) ) ;
#348 = CARTESIAN_POINT ( 'NONE',  ( 0.000000000000000000, 8.603553390593273065, 20.00000000000000000 ) ) ;
#349 = UNCERTAINTY_MEASURE_WITH_UNIT (LENGTH_MEASURE( 1.000000000000000082E-05 ), #551, 'distance_accuracy_value', 'NONE');
#350 = ORIENTED_EDGE ( 'NONE', *, *, #446, .F. ) ;
#351 = CARTESIAN_POINT ( 'NONE',  ( -4.171572875253818147, 6.750000000000000888, 4.784479602281566059E-16 ) ) ;
#352 = DIRECTION ( 'NONE',  ( -0.7071067811865485719, 0.7071067811865464625, 8.109981708077363730E-17 ) ) ;
#353 = FACE_BOUND ( 'NONE', #433, .T. ) ;
#354 = ORIENTED_EDGE ( 'NONE', *, *, #716, .T. ) ;
#355 = DIRECTION ( 'NONE',  ( -0.000000000000000000, 1.000000000000000000, -0.000000000000000000 ) ) ;
#356 = EDGE_CURVE ( 'NONE', #1049, #217, #1034, .T. ) ;
#357 = CARTESIAN_POINT ( 'NONE',  ( 0.000000000000000000, 0.4999999999999961142, 0.000000000000000000 ) ) ;
#358 = EDGE_CURVE ( 'NONE', #324, #804, #581, .T. ) ;
#359 = DIRECTION ( 'NONE',  ( -0.000000000000000000, -1.000000000000000000, -0.000000000000000000 ) ) ;
#360 = EDGE_LOOP ( 'NONE', ( #659, #922, #34, #909 ) ) ;
#361 = CARTESIAN_POINT ( 'NONE',  ( 0.000000000000000000, 0.000000000000000000, 0.000000000000000000 ) ) ;
#362 = DIRECTION ( 'NONE',  ( 0.000000000000000000, 1.000000000000000000, 0.000000000000000000 ) ) ;
#363 = AXIS2_PLACEMENT_3D ( 'NONE', #685, #306, #125 ) ;
#364 = AXIS2_PLACEMENT_3D ( 'NONE', #982, #795, #1066 ) ;
#365 = DIRECTION ( 'NONE',  ( 0.000000000000000000, 1.000000000000000000, 0.000000000000000000 ) ) ;
#366 = ORIENTED_EDGE ( 'NONE', *, *, #53, .F. ) ;
#367 = DIRECTION ( 'NONE',  ( 0.000000000000000000, -1.000000000000000000, 0.000000000000000000 ) ) ;
#368 = CARTESIAN_POINT ( 'NONE',  ( 4.709095079383206262, 8.750000000000000000, 21.25000000000001066 ) ) ;
#369 = DIRECTION ( 'NONE',  ( 0.000000000000000000, 0.000000000000000000, 1.000000000000000000 ) ) ;
#370 = ORIENTED_EDGE ( 'NONE', *, *, #903, .T. ) ;
#371 = ADVANCED_FACE ( 'NONE', ( #223 ), #32, .T. ) ;
#372 = AXIS2_PLACEMENT_3D ( 'NONE', #1169, #334, #702 ) ;
#373 = DIRECTION ( 'NONE',  ( -0.000000000000000000, -1.000000000000000000, -0.000000000000000000 ) ) ;
#374 = DIRECTION ( 'NONE',  ( 0.000000000000000000, 0.000000000000000000, 1.000000000000000000 ) ) ;
#375 = EDGE_CURVE ( 'NONE', #344, #668, #135, .T. ) ;
#376 = DIRECTION ( 'NONE',  ( 0.000000000000000000, -0.000000000000000000, 1.000000000000000000 ) ) ;
#377 = EDGE_LOOP ( 'NONE', ( #1099, #350, #891, #116 ) ) ;
#378 = ORIENTED_EDGE ( 'NONE', *, *, #108, .F. ) ;
#379 = FACE_OUTER_BOUND ( 'NONE', #679, .T. ) ;
#380 = DIRECTION ( 'NONE',  ( -0.000000000000000000, -1.000000000000000000, -0.000000000000000000 ) ) ;
#381 = AXIS2_PLACEMENT_3D ( 'NONE', #406, #598, #872 ) ;
#382 = DIRECTION ( 'NONE',  ( -0.000000000000000000, -1.000000000000000000, -0.000000000000000000 ) ) ;
#383 = ORIENTED_EDGE ( 'NONE', *, *, #90, .T. ) ;
#384 = ORIENTED_EDGE ( 'NONE', *, *, #356, .F. ) ;
#385 = CARTESIAN_POINT ( 'NONE',  ( 0.000000000000000000, 0.000000000000000000, 0.000000000000000000 ) ) ;
#386 = CIRCLE ( 'NONE', #1072, 2.375000000000000000 ) ;
#387 = CARTESIAN_POINT ( 'NONE',  ( 0.1402340016205750328, 8.249999999999978684, 21.75000000000003553 ) ) ;
#388 = LOCAL_TIME ( 17, 6, 15.00000000000000000, #768 ) ;
#389 = VERTEX_POINT ( 'NONE', #141 ) ;
#390 = EDGE_CURVE ( 'NONE', #316, #881, #563, .T. ) ;
#391 = CONICAL_SURFACE ( 'NONE', #605, 2.624999999999998668, 0.7853981633974439491 ) ;
#392 = FACE_OUTER_BOUND ( 'NONE', #896, .T. ) ;
#393 = AXIS2_PLACEMENT_3D ( 'NONE', #640, #734, #1093 ) ;
#394 = EDGE_CURVE ( 'NONE', #923, #217, #863, .T. ) ;
#395 = EDGE_CURVE ( 'NONE', #512, #855, #66, .T. ) ;
#396 = CARTESIAN_POINT ( 'NONE',  ( -2.083333333333303283, 15.83333333333334814, 14.16666666666668917 ) ) ;
#397 = ORIENTED_EDGE ( 'NONE', *, *, #798, .T. ) ;
#398 = AXIS2_PLACEMENT_3D ( 'NONE', #161, #631, #890 ) ;
#399 = CARTESIAN_POINT ( 'NONE',  ( 1.347111479062088503E-16, 8.750000000000000000, 21.10000000000000142 ) ) ;
#400 = VECTOR ( 'NONE', #811, 1000.000000000000000 ) ;
#401 = DIRECTION ( 'NONE',  ( 0.000000000000000000, 0.7071067811865463515, -0.7071067811865487940 ) ) ;
#402 = ORIENTED_EDGE ( 'NONE', *, *, #405, .F. ) ;
#403 = VECTOR ( 'NONE', #643, 1000.000000000000000 ) ;
#404 = EDGE_LOOP ( 'NONE', ( #294, #1054, #743, #366 ) ) ;
#405 = EDGE_CURVE ( 'NONE', #668, #842, #227, .T. ) ;
#406 = CARTESIAN_POINT ( 'NONE',  ( -1.499999999999999778, 6.750000000000000888, -1.500000000000000444 ) ) ;
#407 = CIRCLE ( 'NONE', #961, 5.500000000000000000 ) ;
#408 = CARTESIAN_POINT ( 'NONE',  ( -4.171572875253819035, 6.750000000000001776, -1.500000000000000000 ) ) ;
#409 = ORIENTED_EDGE ( 'NONE', *, *, #644, .F. ) ;
#410 = EDGE_CURVE ( 'NONE', #207, #226, #485, .T. ) ;
#411 = ORIENTED_EDGE ( 'NONE', *, *, #783, .T. ) ;
#412 = LINE ( 'NONE', #118, #1111 ) ;
#413 = DIRECTION ( 'NONE',  ( 0.000000000000000000, 0.000000000000000000, 1.000000000000000000 ) ) ;
#414 = ORIENTED_EDGE ( 'NONE', *, *, #494, .F. ) ;
#415 = ORIENTED_EDGE ( 'NONE', *, *, #266, .F. ) ;
#416 = DIRECTION ( 'NONE',  ( -0.000000000000000000, -1.000000000000000000, -0.000000000000000000 ) ) ;
#417 = CARTESIAN_POINT ( 'NONE',  ( 0.000000000000000000, 5.700000000000000178, 0.000000000000000000 ) ) ;
#418 = ORIENTED_EDGE ( 'NONE', *, *, #482, .F. ) ;
#419 = ORIENTED_EDGE ( 'NONE', *, *, #338, .F. ) ;
#420 = CIRCLE ( 'NONE', #843, 4.749999999999999112 ) ;
#421 = DIRECTION ( 'NONE',  ( 0.000000000000000000, 0.000000000000000000, 1.000000000000000000 ) ) ;
#422 = CARTESIAN_POINT ( 'NONE',  ( 4.171572875253819035, 8.750000000000000000, -1.500000000000000888 ) ) ;
#423 = FACE_OUTER_BOUND ( 'NONE', #360, .T. ) ;
#424 = COORDINATED_UNIVERSAL_TIME_OFFSET ( 8, 0, .BEHIND. ) ;
#425 = CC_DESIGN_PERSON_AND_ORGANIZATION_ASSIGNMENT ( #971, #507, ( #864 ) ) ;
#426 = ORIENTED_EDGE ( 'NONE', *, *, #163, .T. ) ;
#427 = EDGE_CURVE ( 'NONE', #79, #1049, #1104, .T. ) ;
#428 = CYLINDRICAL_SURFACE ( 'NONE', #364, 2.750000000000000000 ) ;
#429 = PLANE ( 'NONE',  #742 ) ;
#430 = AXIS2_PLACEMENT_3D ( 'NONE', #518, #618, #879 ) ;
#431 = AXIS2_PLACEMENT_3D ( 'NONE', #720, #542, #813 ) ;
#432 = PLANE ( 'NONE',  #431 ) ;
#433 = EDGE_LOOP ( 'NONE', ( #732, #293 ) ) ;
#434 = CARTESIAN_POINT ( 'NONE',  ( 1.921816718004426328, 8.729778689919029944, 21.27022131008098071 ) ) ;
#435 = CARTESIAN_POINT ( 'NONE',  ( -5.000000000000010658, 8.750000000000000000, 5.734623061080366239E-16 ) ) ;
#436 = VECTOR ( 'NONE', #65, 1000.000000000000000 ) ;
#437 = LINE ( 'NONE', #803, #706 ) ;
#438 = ORIENTED_EDGE ( 'NONE', *, *, #1043, .F. ) ;
#439 = CARTESIAN_POINT ( 'NONE',  ( 0.000000000000000000, 6.750000000000000000, 0.000000000000000000 ) ) ;
#440 = CC_DESIGN_PERSON_AND_ORGANIZATION_ASSIGNMENT ( #134, #323, ( #220 ) ) ;
#441 = DIRECTION ( 'NONE',  ( -0.000000000000000000, -1.000000000000000000, -0.000000000000000000 ) ) ;
#442 = CARTESIAN_POINT ( 'NONE',  ( 1.902649807907111045E-16, 5.700000000000000178, 1.553631470912111068 ) ) ;
#443 = VERTEX_POINT ( 'NONE', #859 ) ;
#444 = AXIS2_PLACEMENT_3D ( 'NONE', #46, #1030, #236 ) ;
#445 = LOCAL_TIME ( 17, 6, 15.00000000000000000, #596 ) ;
#446 = EDGE_CURVE ( 'NONE', #1031, #7, #386, .T. ) ;
#447 = CARTESIAN_POINT ( 'NONE',  ( 4.171572875253819923, 6.750000000000001776, -1.500000000000000888 ) ) ;
#448 = AXIS2_PLACEMENT_3D ( 'NONE', #722, #367, #1101 ) ;
#449 = CARTESIAN_POINT ( 'NONE',  ( 5.817072295949926440E-16, 0.4999999999999961142, -4.749999999999999112 ) ) ;
#450 = EDGE_CURVE ( 'NONE', #985, #690, #974, .T. ) ;
#451 = CARTESIAN_POINT ( 'NONE',  ( 0.000000000000000000, 8.249999999999992895, 20.00000000000000000 ) ) ;
#452 = AXIS2_PLACEMENT_3D ( 'NONE', #1163, #525, #252 ) ;
#453 = VERTEX_POINT ( 'NONE', #307 ) ;
#454 = VECTOR ( 'NONE', #866, 1000.000000000000114 ) ;
#455 = CARTESIAN_POINT ( 'NONE',  ( 4.171572875253822588, 6.750000000000000888, -4.784479602281570004E-16 ) ) ;
#456 = DIRECTION ( 'NONE',  ( 0.000000000000000000, -1.000000000000000000, 0.000000000000000000 ) ) ;
#457 = DIRECTION ( 'NONE',  ( -0.000000000000000000, -1.000000000000000000, -0.000000000000000000 ) ) ;
#458 = AXIS2_PLACEMENT_3D ( 'NONE', #868, #1133, #47 ) ;
#459 = ORIENTED_EDGE ( 'NONE', *, *, #20, .T. ) ;
#460 = DIRECTION ( 'NONE',  ( 1.533293416683370440E-16, 6.649600213703330313E-32, 1.000000000000000000 ) ) ;
#461 = DIRECTION ( 'NONE',  ( 0.000000000000000000, 0.000000000000000000, -1.000000000000000000 ) ) ;
#462 = AXIS2_PLACEMENT_3D ( 'NONE', #809, #213, #189 ) ;
#463 = CARTESIAN_POINT ( 'NONE',  ( 3.367778697655221012E-16, 8.500000000000003553, -2.750000000000000000 ) ) ;
#464 = ORIENTED_EDGE ( 'NONE', *, *, #76, .T. ) ;
#465 = DIRECTION ( 'NONE',  ( 0.000000000000000000, 1.000000000000000000, 0.000000000000000000 ) ) ;
#466 = ADVANCED_FACE ( 'NONE', ( #132 ), #678, .F. ) ;
#467 = CARTESIAN_POINT ( 'NONE',  ( -1.499999999999999556, 6.750000000000006217, -7.000000000000000000 ) ) ;
#468 = DIRECTION ( 'NONE',  ( 0.000000000000000000, 0.000000000000000000, 1.000000000000000000 ) ) ;
#469 = EDGE_LOOP ( 'NONE', ( #24, #378, #637, #670 ) ) ;
#470 = AXIS2_PLACEMENT_3D ( 'NONE', #577, #89, #468 ) ;
#471 = ORIENTED_EDGE ( 'NONE', *, *, #178, .F. ) ;
#472 = CARTESIAN_POINT ( 'NONE',  ( 0.000000000000000000, 5.700000000000000178, -1.553631470912111068 ) ) ;
#473 = DIRECTION ( 'NONE',  ( 0.000000000000000000, 0.000000000000000000, -1.000000000000000000 ) ) ;
#474 = CARTESIAN_POINT ( 'NONE',  ( 1.347111479062088257E-16, 7.550000000000000711, 21.10000000000000142 ) ) ;
#475 = ORIENTED_EDGE ( 'NONE', *, *, #72, .F. ) ;
#476 = EDGE_LOOP ( 'NONE', ( #721, #397, #684, #572, #568, #55 ) ) ;
#477 = CARTESIAN_POINT ( 'NONE',  ( 2.143131898507867311E-16, 7.550000000000000711, 18.25000000000000000 ) ) ;
#478 = CARTESIAN_POINT ( 'NONE',  ( 7.000000000000000888, 6.750000000000000000, -1.500000000000001332 ) ) ;
#479 = ORIENTED_EDGE ( 'NONE', *, *, #243, .F. ) ;
#480 = EDGE_LOOP ( 'NONE', ( #834, #527, #717, #52, #274, #475, #315, #107, #601, #17, #354 ) ) ;
#481 = EDGE_CURVE ( 'NONE', #205, #589, #505, .T. ) ;
#482 = EDGE_CURVE ( 'NONE', #443, #841, #1116, .T. ) ;
#483 = ADVANCED_BREP_SHAPE_REPRESENTATION ( 'Part3', ( #934, #752 ), #117 ) ;
#484 = DIRECTION ( 'NONE',  ( 0.000000000000000000, 0.000000000000000000, 1.000000000000000000 ) ) ;
#485 = LINE ( 'NONE', #594, #898 ) ;
#486 = LOCAL_TIME ( 17, 6, 15.00000000000000000, #861 ) ;
#487 = ORIENTED_EDGE ( 'NONE', *, *, #731, .T. ) ;
#488 = VECTOR ( 'NONE', #441, 1000.000000000000000 ) ;
#489 = DIRECTION ( 'NONE',  ( 0.000000000000000000, 1.000000000000000000, 0.000000000000000000 ) ) ;
#490 = CIRCLE ( 'NONE', #87, 1.750000000000001554 ) ;
#491 = CARTESIAN_POINT ( 'NONE',  ( -1.740719773425096539, 8.675107555681856653, 21.32489244431815578 ) ) ;
#492 = VERTEX_POINT ( 'NONE', #682 ) ;
#493 = CALENDAR_DATE ( 2026, 28, 7 ) ;
#494 = EDGE_CURVE ( 'NONE', #492, #1016, #557, .T. ) ;
#495 = ORIENTED_EDGE ( 'NONE', *, *, #1080, .F. ) ;
#496 = CARTESIAN_POINT ( 'NONE',  ( 0.000000000000000000, 8.500000000000003553, -2.750000000000000000 ) ) ;
#497 = CARTESIAN_POINT ( 'NONE',  ( 0.000000000000000000, 2.700000000000000178, 0.000000000000000000 ) ) ;
#498 = EDGE_CURVE ( 'NONE', #881, #604, #260, .T. ) ;
#499 = ORIENTED_EDGE ( 'NONE', *, *, #375, .T. ) ;
#500 = EDGE_CURVE ( 'NONE', #7, #207, #988, .T. ) ;
#501 = VERTEX_POINT ( 'NONE', #422 ) ;
#502 = EDGE_CURVE ( 'NONE', #749, #841, #529, .T. ) ;
#503 = CARTESIAN_POINT ( 'NONE',  ( 0.000000000000000000, 8.750000000000000000, 0.000000000000000000 ) ) ;
#504 = AXIS2_PLACEMENT_3D ( 'NONE', #874, #401, #782 ) ;
#505 = LINE ( 'NONE', #396, #94 ) ;
#506 = CARTESIAN_POINT ( 'NONE',  ( 2.908536147974963713E-16, 2.700000000000000178, 2.375000000000000000 ) ) ;
#507 = PERSON_AND_ORGANIZATION_ROLE ( 'creator' ) ;
#508 = ORIENTED_EDGE ( 'NONE', *, *, #851, .F. ) ;
#509 = CARTESIAN_POINT ( 'NONE',  ( 0.000000000000000000, 6.750000000000000888, -4.171572875253819923 ) ) ;
#510 = DIRECTION ( 'NONE',  ( 0.000000000000000000, 0.000000000000000000, -1.000000000000000000 ) ) ;
#511 = AXIS2_PLACEMENT_3D ( 'NONE', #847, #853, #26 ) ;
#512 = VERTEX_POINT ( 'NONE', #629 ) ;
#513 = APPROVAL_STATUS ( 'not_yet_approved' ) ;
#514 = ORIENTED_EDGE ( 'NONE', *, *, #1140, .F. ) ;
#515 = CARTESIAN_POINT ( 'NONE',  ( -5.205700842048685217, 8.544299157951320112, 21.45570084204868877 ) ) ;
#516 = AXIS2_PLACEMENT_3D ( 'NONE', #1041, #224, #959 ) ;
#517 = EDGE_CURVE ( 'NONE', #316, #453, #624, .T. ) ;
#518 = CARTESIAN_POINT ( 'NONE',  ( 0.000000000000000000, 0.000000000000000000, 0.000000000000000000 ) ) ;
#519 = EDGE_LOOP ( 'NONE', ( #955, #426, #824, #49 ) ) ;
#520 = EDGE_CURVE ( 'NONE', #217, #923, #126, .T. ) ;
#521 = MECHANICAL_CONTEXT ( 'NONE', #635, 'mechanical' ) ;
#522 = VERTEX_POINT ( 'NONE', #788 ) ;
#523 = AXIS2_PLACEMENT_3D ( 'NONE', #304, #565, #277 ) ;
#524 = CARTESIAN_POINT ( 'NONE',  ( 0.000000000000000000, 5.700000000000000178, 0.000000000000000000 ) ) ;
#525 = DIRECTION ( 'NONE',  ( -0.000000000000000000, -1.000000000000000000, -0.000000000000000000 ) ) ;
#526 = DIRECTION ( 'NONE',  ( -0.000000000000000000, -1.000000000000000000, -0.000000000000000000 ) ) ;
#527 = ORIENTED_EDGE ( 'NONE', *, *, #940, .T. ) ;
#528 = CARTESIAN_POINT ( 'NONE',  ( 5.817072295949926440E-16, 6.750000000000000000, 4.749999999999999112 ) ) ;
#529 = LINE ( 'NONE', #449, #951 ) ;
#530 = AXIS2_PLACEMENT_3D ( 'NONE', #105, #95, #827 ) ;
#531 = CARTESIAN_POINT ( 'NONE',  ( 1.500000000000000444, 8.750000000000000000, -1.500000000000000444 ) ) ;
#532 = VERTEX_POINT ( 'NONE', #713 ) ;
#533 = EDGE_CURVE ( 'NONE', #85, #512, #138, .T. ) ;
#534 = FACE_OUTER_BOUND ( 'NONE', #322, .T. ) ;
#535 = FACE_OUTER_BOUND ( 'NONE', #29, .T. ) ;
#536 = ADVANCED_FACE ( 'NONE', ( #534 ), #281, .T. ) ;
#537 = ORIENTED_EDGE ( 'NONE', *, *, #197, .T. ) ;
#538 = AXIS2_PLACEMENT_3D ( 'NONE', #503, #672, #1029 ) ;
#539 = EDGE_CURVE ( 'NONE', #328, #85, #969, .T. ) ;
#540 = DIRECTION ( 'NONE',  ( 1.146924612216070931E-16, 0.000000000000000000, 1.000000000000000000 ) ) ;
#541 = DIRECTION ( 'NONE',  ( 0.000000000000000000, 0.000000000000000000, 1.000000000000000000 ) ) ;
#542 = DIRECTION ( 'NONE',  ( 0.000000000000000000, 1.000000000000000000, 0.000000000000000000 ) ) ;
#543 = EDGE_LOOP ( 'NONE', ( #556, #946, #970, #330 ) ) ;
#544 = LINE ( 'NONE', #282, #901 ) ;
#545 = APPROVAL_PERSON_ORGANIZATION ( #1055, #763, #689 ) ;
#546 = DIRECTION ( 'NONE',  ( 0.000000000000000000, 1.000000000000000000, 0.000000000000000000 ) ) ;
#547 = CARTESIAN_POINT ( 'NONE',  ( 0.000000000000000000, 8.500000000000003553, 0.000000000000000000 ) ) ;
#548 = AXIS2_PLACEMENT_3D ( 'NONE', #271, #546, #906 ) ;
#549 = ORIENTED_EDGE ( 'NONE', *, *, #356, .T. ) ;
#550 = CIRCLE ( 'NONE', #907, 5.500000000000000000 ) ;
#551 =( LENGTH_UNIT ( ) NAMED_UNIT ( * ) SI_UNIT ( .MILLI., .METRE. ) );
#552 = DIRECTION ( 'NONE',  ( -0.000000000000000000, 1.000000000000000000, -0.000000000000000000 ) ) ;
#553 = DIRECTION ( 'NONE',  ( 0.000000000000000000, 1.000000000000000000, 0.000000000000000000 ) ) ;
#554 = CIRCLE ( 'NONE', #458, 2.750000000000000000 ) ;
#555 = EDGE_CURVE ( 'NONE', #1031, #288, #169, .T. ) ;
#556 = ORIENTED_EDGE ( 'NONE', *, *, #740, .T. ) ;
#557 = CIRCLE ( 'NONE', #248, 2.999999999999999112 ) ;
#558 = FACE_OUTER_BOUND ( 'NONE', #737, .T. ) ;
#559 = LINE ( 'NONE', #467, #144 ) ;
#560 = SECURITY_CLASSIFICATION ( '', '', #773 ) ;
#561 = CARTESIAN_POINT ( 'NONE',  ( 2.908536147974963713E-16, 0.2500000000000011102, 2.375000000000000000 ) ) ;
#562 = ORIENTED_EDGE ( 'NONE', *, *, #819, .T. ) ;
#563 = CIRCLE ( 'NONE', #444, 2.750000000000000000 ) ;
#564 = ORIENTED_EDGE ( 'NONE', *, *, #481, .T. ) ;
#565 = DIRECTION ( 'NONE',  ( -0.000000000000000000, -1.000000000000000000, -0.000000000000000000 ) ) ;
#566 = DIRECTION ( 'NONE',  ( 0.000000000000000000, 1.000000000000000000, 0.000000000000000000 ) ) ;
#567 = CARTESIAN_POINT ( 'NONE',  ( 0.2792355180772898016, 8.258425000482541023, 21.74157499951747141 ) ) ;
#568 = ORIENTED_EDGE ( 'NONE', *, *, #183, .F. ) ;
#569 = CC_DESIGN_PERSON_AND_ORGANIZATION_ASSIGNMENT ( #225, #785, ( #560 ) ) ;
#570 = CARTESIAN_POINT ( 'NONE',  ( 5.205700842048696764, 8.544299157951316559, 21.45570084204868877 ) ) ;
#571 = FACE_BOUND ( 'NONE', #2, .T. ) ;
#572 = ORIENTED_EDGE ( 'NONE', *, *, #338, .T. ) ;
#573 = ADVANCED_FACE ( 'NONE', ( #1067, #155 ), #429, .T. ) ;
#574 = ADVANCED_FACE ( 'NONE', ( #148 ), #754, .F. ) ;
#575 = LINE ( 'NONE', #399, #756 ) ;
#576 = AXIS2_PLACEMENT_3D ( 'NONE', #1119, #131, #765 ) ;
#577 = CARTESIAN_POINT ( 'NONE',  ( 0.000000000000000000, 8.249999999999992895, 20.00000000000000000 ) ) ;
#578 = ORIENTED_EDGE ( 'NONE', *, *, #120, .F. ) ;
#579 = ORIENTED_EDGE ( 'NONE', *, *, #410, .F. ) ;
#580 = DIRECTION ( 'NONE',  ( -1.000000000000000000, 0.000000000000000000, 0.000000000000000000 ) ) ;
#581 = LINE ( 'NONE', #686, #1015 ) ;
#582 = VERTEX_POINT ( 'NONE', #707 ) ;
#583 = CARTESIAN_POINT ( 'NONE',  ( 0.000000000000000000, 7.550000000000000711, 20.00000000000000000 ) ) ;
#584 = ORIENTED_EDGE ( 'NONE', *, *, #764, .T. ) ;
#585 = AXIS2_PLACEMENT_3D ( 'NONE', #1010, #1103, #647 ) ;
#586 = DIRECTION ( 'NONE',  ( 0.000000000000000000, 1.000000000000000000, 0.000000000000000000 ) ) ;
#587 = EDGE_CURVE ( 'NONE', #749, #1170, #793, .T. ) ;
#588 = DIRECTION ( 'NONE',  ( -0.000000000000000000, -1.000000000000000000, -0.000000000000000000 ) ) ;
#589 = VERTEX_POINT ( 'NONE', #77 ) ;
#590 = EDGE_CURVE ( 'NONE', #389, #841, #60, .T. ) ;
#591 = ORIENTED_EDGE ( 'NONE', *, *, #375, .F. ) ;
#592 = AXIS2_PLACEMENT_3D ( 'NONE', #357, #885, #1083 ) ;
#593 = CARTESIAN_POINT ( 'NONE',  ( -7.000000000000000000, 6.750000000000000000, -7.000000000000000000 ) ) ;
#594 = CARTESIAN_POINT ( 'NONE',  ( 3.214697847761800597E-16, 0.000000000000000000, 2.624999999999998668 ) ) ;
#595 = ORIENTED_EDGE ( 'NONE', *, *, #1039, .F. ) ;
#596 = COORDINATED_UNIVERSAL_TIME_OFFSET ( 8, 0, .BEHIND. ) ;
#597 = ORIENTED_EDGE ( 'NONE', *, *, #781, .F. ) ;
#598 = DIRECTION ( 'NONE',  ( 0.000000000000000000, 1.000000000000000000, 0.000000000000000000 ) ) ;
#599 = CIRCLE ( 'NONE', #195, 2.103553390593281058 ) ;
#600 = DIRECTION ( 'NONE',  ( 0.000000000000000000, 0.000000000000000000, 1.000000000000000000 ) ) ;
#601 = ORIENTED_EDGE ( 'NONE', *, *, #286, .T. ) ;
#602 = DATE_AND_TIME ( #493, #486 ) ;
#603 = CIRCLE ( 'NONE', #1106, 4.250000000000000000 ) ;
#604 = VERTEX_POINT ( 'NONE', #160 ) ;
#605 = AXIS2_PLACEMENT_3D ( 'NONE', #385, #264, #194 ) ;
#606 = DIRECTION ( 'NONE',  ( 0.000000000000000000, 0.000000000000000000, 1.000000000000000000 ) ) ;
#607 = ADVANCED_FACE ( 'NONE', ( #806 ), #889, .T. ) ;
#608 = ADVANCED_FACE ( 'NONE', ( #1078 ), #634, .F. ) ;
#609 = DIRECTION ( 'NONE',  ( 0.000000000000000000, -1.000000000000000000, 0.000000000000000000 ) ) ;
#610 = AXIS2_PLACEMENT_3D ( 'NONE', #838, #380, #1102 ) ;
#611 = ORIENTED_EDGE ( 'NONE', *, *, #539, .F. ) ;
#612 = DIRECTION ( 'NONE',  ( 0.000000000000000000, 0.000000000000000000, 1.000000000000000000 ) ) ;
#613 = ADVANCED_FACE ( 'NONE', ( #284 ), #110, .F. ) ;
#614 = EDGE_CURVE ( 'NONE', #654, #501, #1001, .T. ) ;
#615 = EDGE_LOOP ( 'NONE', ( #499, #857, #167, #932 ) ) ;
#616 = CARTESIAN_POINT ( 'NONE',  ( 1.500000000000000444, 8.750000000000000000, -4.171572875253819923 ) ) ;
#617 = AXIS2_PLACEMENT_3D ( 'NONE', #314, #957, #600 ) ;
#618 = DIRECTION ( 'NONE',  ( -0.000000000000000000, -1.000000000000000000, -0.000000000000000000 ) ) ;
#619 = LINE ( 'NONE', #886, #630 ) ;
#620 = CARTESIAN_POINT ( 'NONE',  ( 0.000000000000000000, 0.000000000000000000, 0.000000000000000000 ) ) ;
#621 = ORIENTED_EDGE ( 'NONE', *, *, #450, .T. ) ;
#622 = AXIS2_PLACEMENT_3D ( 'NONE', #263, #1166, #837 ) ;
#623 = CARTESIAN_POINT ( 'NONE',  ( 1.741080552438455831, 8.675282977518362415, 21.32471702248165002 ) ) ;
#624 = LINE ( 'NONE', #341, #800 ) ;
#625 = CARTESIAN_POINT ( 'NONE',  ( 0.000000000000000000, 8.164213562373092259, -5.585786437626917511 ) ) ;
#626 = VERTEX_POINT ( 'NONE', #477 ) ;
#627 = CARTESIAN_POINT ( 'NONE',  ( 2.115389735758619771, 8.750000000000000000, 21.25000000000001066 ) ) ;
#628 = ADVANCED_FACE ( 'NONE', ( #919 ), #5, .F. ) ;
#629 = CARTESIAN_POINT ( 'NONE',  ( -1.573173141829877331, 8.603553390596378136, 21.39644660940363607 ) ) ;
#630 = VECTOR ( 'NONE', #67, 1000.000000000000000 ) ;
#631 = DIRECTION ( 'NONE',  ( -0.000000000000000000, -1.000000000000000000, -0.000000000000000000 ) ) ;
#632 = VERTEX_POINT ( 'NONE', #14 ) ;
#633 = CARTESIAN_POINT ( 'NONE',  ( 2.015915940696048736, 8.750000000000001776, 21.25000000000000711 ) ) ;
#634 = CYLINDRICAL_SURFACE ( 'NONE', #333, 1.553631470912111068 ) ;
#635 = APPLICATION_CONTEXT ( 'configuration controlled 3d designs of mechanical parts and assemblies' ) ;
#636 = LINE ( 'NONE', #84, #119 ) ;
#637 = ORIENTED_EDGE ( 'NONE', *, *, #1108, .F. ) ;
#638 = AXIS2_PLACEMENT_3D ( 'NONE', #1071, #1161, #1143 ) ;
#639 = DIRECTION ( 'NONE',  ( 0.000000000000000000, 0.000000000000000000, 1.000000000000000000 ) ) ;
#640 = CARTESIAN_POINT ( 'NONE',  ( 0.000000000000000000, 7.550000000000000711, 20.00000000000000000 ) ) ;
#641 = DIRECTION ( 'NONE',  ( 0.000000000000000000, 0.000000000000000000, 1.000000000000000000 ) ) ;
#642 = ORIENTED_EDGE ( 'NONE', *, *, #90, .F. ) ;
#643 = DIRECTION ( 'NONE',  ( 0.000000000000000000, 0.7071067811865439090, 0.7071067811865512365 ) ) ;
#644 = EDGE_CURVE ( 'NONE', #881, #316, #275, .T. ) ;
#645 = CARTESIAN_POINT ( 'NONE',  ( 4.171572875253825252, 8.750000000000000000, 21.25000000000001066 ) ) ;
#646 = EDGE_CURVE ( 'NONE', #308, #522, #1091, .T. ) ;
#647 = DIRECTION ( 'NONE',  ( 0.000000000000000000, 0.000000000000000000, 1.000000000000000000 ) ) ;
#648 = CIRCLE ( 'NONE', #610, 4.085786437626916623 ) ;
#649 = VECTOR ( 'NONE', #1014, 1000.000000000000000 ) ;
#650 = ORIENTED_EDGE ( 'NONE', *, *, #839, .T. ) ;
#651 = FACE_OUTER_BOUND ( 'NONE', #469, .T. ) ;
#652 = FACE_OUTER_BOUND ( 'NONE', #760, .T. ) ;
#653 = CARTESIAN_POINT ( 'NONE',  ( 0.5548981465064963814, 8.291273497402604775, 21.70872650259740411 ) ) ;
#654 = VERTEX_POINT ( 'NONE', #645 ) ;
#655 = DIRECTION ( 'NONE',  ( -1.000000000000000000, 0.000000000000000000, 0.000000000000000000 ) ) ;
#656 = FACE_OUTER_BOUND ( 'NONE', #152, .T. ) ;
#657 = CARTESIAN_POINT ( 'NONE',  ( 0.000000000000000000, 2.700000000000000178, -1.553631470912111068 ) ) ;
#658 = ADVANCED_FACE ( 'NONE', ( #21, #656 ), #1004, .T. ) ;
#659 = ORIENTED_EDGE ( 'NONE', *, *, #817, .F. ) ;
#660 = ADVANCED_FACE ( 'NONE', ( #186 ), #729, .F. ) ;
#661 = FACE_OUTER_BOUND ( 'NONE', #519, .T. ) ;
#662 = ORIENTED_EDGE ( 'NONE', *, *, #211, .T. ) ;
#663 = ADVANCED_FACE ( 'NONE', ( #652 ), #391, .F. ) ;
#664 = VECTOR ( 'NONE', #190, 1000.000000000000000 ) ;
#665 = ORIENTED_EDGE ( 'NONE', *, *, #555, .F. ) ;
#666 = CARTESIAN_POINT ( 'NONE',  ( 5.510910596163088569E-16, 0.000000000000000000, -4.250000000000000000 ) ) ;
#667 = LINE ( 'NONE', #753, #1035 ) ;
#668 = VERTEX_POINT ( 'NONE', #911 ) ;
#669 = AXIS2_PLACEMENT_3D ( 'NONE', #156, #789, #1158 ) ;
#670 = ORIENTED_EDGE ( 'NONE', *, *, #711, .F. ) ;
#671 =( BOUNDED_CURVE ( )  B_SPLINE_CURVE ( 3, ( #1017, #570, #368, #100 ),
 .UNSPECIFIED., .F., .F. ) 
 B_SPLINE_CURVE_WITH_KNOTS ( ( 4, 4 ),
 ( 5.497787143782136177, 6.283185307179586232 ),
 .UNSPECIFIED. ) 
 CURVE ( )  GEOMETRIC_REPRESENTATION_ITEM ( )  RATIONAL_B_SPLINE_CURVE ( ( 1.000000000000000000, 0.9492530216741910110, 0.9492530216741910110, 1.000000000000000000 ) ) 
 REPRESENTATION_ITEM ( '' )  );
#672 = DIRECTION ( 'NONE',  ( -0.000000000000000000, -1.000000000000000000, -0.000000000000000000 ) ) ;
#673 = DIRECTION ( 'NONE',  ( 0.000000000000000000, 1.000000000000000000, 0.000000000000000000 ) ) ;
#674 = AXIS2_PLACEMENT_3D ( 'NONE', #331, #235, #606 ) ;
#675 = ORIENTED_EDGE ( 'NONE', *, *, #851, .T. ) ;
#676 = LINE ( 'NONE', #92, #192 ) ;
#677 = DIRECTION ( 'NONE',  ( 0.7071067811865465735, 0.7071067811865483499, -7.666467083416902738E-17 ) ) ;
#678 = CYLINDRICAL_SURFACE ( 'NONE', #1065, 2.375000000000000000 ) ;
#679 = EDGE_LOOP ( 'NONE', ( #254, #562, #383, #875 ) ) ;
#680 = ORIENTED_EDGE ( 'NONE', *, *, #716, .F. ) ;
#681 = DIRECTION ( 'NONE',  ( 0.000000000000000000, 0.000000000000000000, 1.000000000000000000 ) ) ;
#682 = CARTESIAN_POINT ( 'NONE',  ( 3.673940397442058882E-16, 8.750000000000000000, -2.999999999999999112 ) ) ;
#683 = EDGE_LOOP ( 'NONE', ( #212, #12 ) ) ;
#684 = ORIENTED_EDGE ( 'NONE', *, *, #746, .F. ) ;
#685 = CARTESIAN_POINT ( 'NONE',  ( 5.000000000000014211, 8.750000000000000000, -5.734623061080370183E-16 ) ) ;
#686 = CARTESIAN_POINT ( 'NONE',  ( 7.000000000000000000, 6.750000000000006217, -1.500000000000001332 ) ) ;
#687 = TOROIDAL_SURFACE ( 'NONE', #933, 2.457106781186555011, 0.5000000000000000000 ) ;
#688 = ORIENTED_EDGE ( 'NONE', *, *, #587, .T. ) ;
#689 = APPROVAL_ROLE ( '' ) ;
#690 = VERTEX_POINT ( 'NONE', #177 ) ;
#691 = FACE_OUTER_BOUND ( 'NONE', #1124, .T. ) ;
#692 = APPROVAL_PERSON_ORGANIZATION ( #696, #15, #62 ) ;
#693 = CARTESIAN_POINT ( 'NONE',  ( -4.171572875253818147, 8.750000000000000000, 4.784479602281566059E-16 ) ) ;
#694 = ADVANCED_FACE ( 'NONE', ( #926 ), #1087, .F. ) ;
#695 = ORIENTED_EDGE ( 'NONE', *, *, #20, .F. ) ;
#696 = PERSON_AND_ORGANIZATION ( #810, #791 ) ;
#697 = ORIENTED_EDGE ( 'NONE', *, *, #1027, .F. ) ;
#698 = AXIS2_PLACEMENT_3D ( 'NONE', #1097, #566, #747 ) ;
#699 = DIRECTION ( 'NONE',  ( 1.000000000000000000, 0.000000000000000000, -1.146924612216070931E-16 ) ) ;
#700 = CARTESIAN_POINT ( 'NONE',  ( 0.000000000000000000, 7.550000000000000711, 21.75000000000000355 ) ) ;
#701 = CIRCLE ( 'NONE', #511, 2.000000000000000000 ) ;
#702 = DIRECTION ( 'NONE',  ( 0.000000000000000000, 0.000000000000000000, -1.000000000000000000 ) ) ;
#703 = PERSON_AND_ORGANIZATION ( #810, #791 ) ;
#704 = EDGE_LOOP ( 'NONE', ( #36, #688 ) ) ;
#705 = FACE_OUTER_BOUND ( 'NONE', #744, .T. ) ;
#706 = VECTOR ( 'NONE', #1164, 1000.000000000000000 ) ;
#707 = CARTESIAN_POINT ( 'NONE',  ( -6.999999999999999112, 6.750000000000000000, -1.499999999999999556 ) ) ;
#708 = LINE ( 'NONE', #625, #1064 ) ;
#709 = ORIENTED_EDGE ( 'NONE', *, *, #4, .F. ) ;
#710 = AXIS2_PLACEMENT_3D ( 'NONE', #1090, #355, #3 ) ;
#711 = EDGE_CURVE ( 'NONE', #632, #804, #648, .T. ) ;
#712 = FACE_OUTER_BOUND ( 'NONE', #112, .T. ) ;
#713 = CARTESIAN_POINT ( 'NONE',  ( -1.499999999999999556, 8.164213562373092259, -5.585786437626917511 ) ) ;
#714 = AXIS2_PLACEMENT_3D ( 'NONE', #291, #931, #111 ) ;
#715 = CYLINDRICAL_SURFACE ( 'NONE', #669, 1.100000000000000311 ) ;
#716 = EDGE_CURVE ( 'NONE', #205, #654, #671, .T. ) ;
#717 = ORIENTED_EDGE ( 'NONE', *, *, #243, .T. ) ;
#718 = PLANE ( 'NONE',  #325 ) ;
#719 = CARTESIAN_POINT ( 'NONE',  ( -1.338547690360545106, 8.498094402413162385, 21.50190559758684827 ) ) ;
#720 = CARTESIAN_POINT ( 'NONE',  ( 0.000000000000000000, 0.000000000000000000, 0.000000000000000000 ) ) ;
#721 = ORIENTED_EDGE ( 'NONE', *, *, #903, .F. ) ;
#722 = CARTESIAN_POINT ( 'NONE',  ( -1.499999999999999778, 8.750000000000000000, -1.500000000000000444 ) ) ;
#723 = CARTESIAN_POINT ( 'NONE',  ( 0.000000000000000000, 14.52817459305202163, -2.750000000000000000 ) ) ;
#724 = DIRECTION ( 'NONE',  ( 0.000000000000000000, 1.000000000000000000, 0.000000000000000000 ) ) ;
#725 = ORIENTED_EDGE ( 'NONE', *, *, #163, .F. ) ;
#726 = CIRCLE ( 'NONE', #206, 2.624999999999998668 ) ;
#727 = LINE ( 'NONE', #738, #292 ) ;
#728 = EDGE_CURVE ( 'NONE', #328, #626, #1167, .T. ) ;
#729 = CYLINDRICAL_SURFACE ( 'NONE', #1056, 2.750000000000000000 ) ;
#730 = DIRECTION ( 'NONE',  ( -1.000000000000000000, 0.000000000000000000, 0.000000000000000000 ) ) ;
#731 = EDGE_CURVE ( 'NONE', #626, #1020, #278, .T. ) ;
#732 = ORIENTED_EDGE ( 'NONE', *, *, #1142, .T. ) ;
#733 = CARTESIAN_POINT ( 'NONE',  ( 0.000000000000000000, 8.500000000000003553, 2.750000000000000000 ) ) ;
#734 = DIRECTION ( 'NONE',  ( 0.000000000000000000, 1.000000000000000000, 0.000000000000000000 ) ) ;
#735 = CARTESIAN_POINT ( 'NONE',  ( 3.214697847761800597E-16, 0.000000000000000000, 2.624999999999998668 ) ) ;
#736 = AXIS2_PLACEMENT_3D ( 'NONE', #927, #365, #376 ) ;
#737 = EDGE_LOOP ( 'NONE', ( #725, #1121, #948, #779 ) ) ;
#738 = CARTESIAN_POINT ( 'NONE',  ( 0.000000000000000000, 0.4999999999999961142, 4.749999999999999112 ) ) ;
#739 = CARTESIAN_POINT ( 'NONE',  ( 4.171572875253822588, 8.750000000000000000, -4.784479602281570004E-16 ) ) ;
#740 = EDGE_CURVE ( 'NONE', #1003, #532, #559, .T. ) ;
#741 = FACE_OUTER_BOUND ( 'NONE', #883, .T. ) ;
#742 = AXIS2_PLACEMENT_3D ( 'NONE', #82, #893, #1157 ) ;
#743 = ORIENTED_EDGE ( 'NONE', *, *, #450, .F. ) ;
#744 = EDGE_LOOP ( 'NONE', ( #860, #642, #846, #769, #1139 ) ) ;
#745 = DIRECTION ( 'NONE',  ( 0.000000000000000000, 0.000000000000000000, 1.000000000000000000 ) ) ;
#746 = EDGE_CURVE ( 'NONE', #241, #1003, #1107, .T. ) ;
#747 = DIRECTION ( 'NONE',  ( 0.000000000000000000, -0.000000000000000000, 1.000000000000000000 ) ) ;
#748 = DIRECTION ( 'NONE',  ( 0.000000000000000000, 0.000000000000000000, -1.000000000000000000 ) ) ;
#749 = VERTEX_POINT ( 'NONE', #666 ) ;
#750 = AXIS2_PLACEMENT_3D ( 'NONE', #417, #1120, #1053 ) ;
#751 = DIRECTION ( 'NONE',  ( -1.146924612216070931E-16, 0.000000000000000000, -1.000000000000000000 ) ) ;
#752 = AXIS2_PLACEMENT_3D ( 'NONE', #620, #612, #48 ) ;
#753 = CARTESIAN_POINT ( 'NONE',  ( 0.000000000000000000, 0.000000000000000000, -2.624999999999998668 ) ) ;
#754 = CONICAL_SURFACE ( 'NONE', #430, 2.624999999999998668, 0.7853981633974439491 ) ;
#755 = ORIENTED_EDGE ( 'NONE', *, *, #76, .F. ) ;
#756 = VECTOR ( 'NONE', #221, 1000.000000000000000 ) ;
#757 = VERTEX_POINT ( 'NONE', #140 ) ;
#758 = CARTESIAN_POINT ( 'NONE',  ( -1.499999999999999778, 6.750000000000000000, -1.500000000000000444 ) ) ;
#759 = CARTESIAN_POINT ( 'NONE',  ( -5.585786437626916623, 8.164213562373094035, -1.499999999999999778 ) ) ;
#760 = EDGE_LOOP ( 'NONE', ( #755, #98, #990, #415 ) ) ;
#761 = AXIS2_PLACEMENT_3D ( 'NONE', #531, #807, #641 ) ;
#762 = AXIS2_PLACEMENT_3D ( 'NONE', #127, #1126, #413 ) ;
#763 = APPROVAL ( #1042, 'UNSPECIFIED' ) ;
#764 = EDGE_CURVE ( 'NONE', #219, #668, #812, .T. ) ;
#765 = DIRECTION ( 'NONE',  ( 0.000000000000000000, 0.000000000000000000, 1.000000000000000000 ) ) ;
#766 = CARTESIAN_POINT ( 'NONE',  ( -2.016132557854854124, 8.750000000000000000, 21.25000000000001066 ) ) ;
#767 = ORIENTED_EDGE ( 'NONE', *, *, #814, .F. ) ;
#768 = COORDINATED_UNIVERSAL_TIME_OFFSET ( 8, 0, .BEHIND. ) ;
#769 = ORIENTED_EDGE ( 'NONE', *, *, #940, .F. ) ;
#770 = CARTESIAN_POINT ( 'NONE',  ( -1.499999999999999778, 8.750000000000000000, -1.500000000000000444 ) ) ;
#771 = DIRECTION ( 'NONE',  ( 0.000000000000000000, 0.000000000000000000, -1.000000000000000000 ) ) ;
#772 = ORIENTED_EDGE ( 'NONE', *, *, #1123, .F. ) ;
#773 = SECURITY_CLASSIFICATION_LEVEL ( 'unclassified' ) ;
#774 = ORIENTED_EDGE ( 'NONE', *, *, #587, .F. ) ;
#775 = FACE_OUTER_BOUND ( 'NONE', #615, .T. ) ;
#776 = DIRECTION ( 'NONE',  ( 0.000000000000000000, -1.000000000000000000, 0.000000000000000000 ) ) ;
#777 = EDGE_LOOP ( 'NONE', ( #495, #487, #411, #611 ) ) ;
#778 = APPLICATION_PROTOCOL_DEFINITION ( 'international standard', 'config_control_design', 1994, #635 ) ;
#779 = ORIENTED_EDGE ( 'NONE', *, *, #1123, .T. ) ;
#780 = CARTESIAN_POINT ( 'NONE',  ( 0.000000000000000000, 8.250000000000000000, 20.00000000000000000 ) ) ;
#781 = EDGE_CURVE ( 'NONE', #7, #1031, #296, .T. ) ;
#782 = DIRECTION ( 'NONE',  ( 1.000000000000000000, 0.000000000000000000, 0.000000000000000000 ) ) ;
#783 = EDGE_CURVE ( 'NONE', #1020, #85, #490, .T. ) ;
#784 = EDGE_LOOP ( 'NONE', ( #595, #130, #549, #1081 ) ) ;
#785 = PERSON_AND_ORGANIZATION_ROLE ( 'classification_officer' ) ;
#786 = ORIENTED_EDGE ( 'NONE', *, *, #358, .T. ) ;
#787 = DIRECTION ( 'NONE',  ( 0.000000000000000000, 0.000000000000000000, 1.000000000000000000 ) ) ;
#788 = CARTESIAN_POINT ( 'NONE',  ( 0.000000000000000000, 7.550000000000000711, 18.89999999999999858 ) ) ;
#789 = DIRECTION ( 'NONE',  ( -0.000000000000000000, -1.000000000000000000, -0.000000000000000000 ) ) ;
#790 = CALENDAR_DATE ( 2026, 28, 7 ) ;
#791 = ORGANIZATION ( 'UNSPECIFIED', 'UNSPECIFIED', '' ) ;
#792 = EDGE_LOOP ( 'NONE', ( #675, #960, #19, #384 ) ) ;
#793 = CIRCLE ( 'NONE', #452, 4.250000000000000000 ) ;
#794 = AXIS2_PLACEMENT_3D ( 'NONE', #6, #553, #369 ) ;
#795 = DIRECTION ( 'NONE',  ( 0.000000000000000000, -1.000000000000000000, 0.000000000000000000 ) ) ;
#796 = CARTESIAN_POINT ( 'NONE',  ( -1.573173141829877331, 8.603553390596378136, 21.39644660940363607 ) ) ;
#797 = DIRECTION ( 'NONE',  ( 1.000000000000000000, 0.000000000000000000, 0.000000000000000000 ) ) ;
#798 = EDGE_CURVE ( 'NONE', #582, #1003, #550, .T. ) ;
#799 = ORIENTED_EDGE ( 'NONE', *, *, #502, .T. ) ;
#800 = VECTOR ( 'NONE', #244, 1000.000000000000000 ) ;
#801 = LINE ( 'NONE', #992, #1046 ) ;
#802 = CARTESIAN_POINT ( 'NONE',  ( 0.000000000000000000, 8.750000000000000000, 0.000000000000000000 ) ) ;
#803 = CARTESIAN_POINT ( 'NONE',  ( 5.585786437626919287, 8.164213562373092259, -6.406475943897042749E-16 ) ) ;
#804 = VERTEX_POINT ( 'NONE', #45 ) ;
#805 = DIRECTION ( 'NONE',  ( 0.000000000000000000, -0.000000000000000000, -1.000000000000000000 ) ) ;
#806 = FACE_OUTER_BOUND ( 'NONE', #258, .T. ) ;
#807 = DIRECTION ( 'NONE',  ( 0.000000000000000000, 1.000000000000000000, 0.000000000000000000 ) ) ;
#808 = ORIENTED_EDGE ( 'NONE', *, *, #814, .T. ) ;
#809 = CARTESIAN_POINT ( 'NONE',  ( 1.500000000000000444, 6.750000000000000888, -1.500000000000000444 ) ) ;
#810 = PERSON ( 'UNSPECIFIED', 'UNSPECIFIED', 'UNSPECIFIED', ('UNSPECIFIED'), ('UNSPECIFIED'), ('UNSPECIFIED') ) ;
#811 = DIRECTION ( 'NONE',  ( -0.000000000000000000, -1.000000000000000000, -0.000000000000000000 ) ) ;
#812 = CIRCLE ( 'NONE', #852, 2.671572875253819035 ) ;
#813 = DIRECTION ( 'NONE',  ( 0.000000000000000000, -0.000000000000000000, 1.000000000000000000 ) ) ;
#814 = EDGE_CURVE ( 'NONE', #582, #344, #412, .T. ) ;
#815 = EDGE_CURVE ( 'NONE', #757, #654, #1131, .T. ) ;
#816 = EDGE_LOOP ( 'NONE', ( #122, #1100, #199, #1089 ) ) ;
#817 = EDGE_CURVE ( 'NONE', #308, #690, #575, .T. ) ;
#818 = CARTESIAN_POINT ( 'NONE',  ( 0.000000000000000000, 0.000000000000000000, 4.250000000000000000 ) ) ;
#819 = EDGE_CURVE ( 'NONE', #1020, #303, #935, .T. ) ;
#820 = ADVANCED_FACE ( 'NONE', ( #1045 ), #1125, .T. ) ;
#821 = CARTESIAN_POINT ( 'NONE',  ( 0.000000000000000000, 7.550000000000000711, 20.00000000000000000 ) ) ;
#822 = CIRCLE ( 'NONE', #761, 2.671572875253819035 ) ;
#823 = LINE ( 'NONE', #191, #649 ) ;
#824 = ORIENTED_EDGE ( 'NONE', *, *, #482, .T. ) ;
#825 = LINE ( 'NONE', #733, #403 ) ;
#826 = AXIS2_PLACEMENT_3D ( 'NONE', #583, #904, #1096 ) ;
#827 = DIRECTION ( 'NONE',  ( 0.000000000000000000, 0.000000000000000000, 1.000000000000000000 ) ) ;
#828 = CARTESIAN_POINT ( 'NONE',  ( -1.499999999999999556, 8.750000000000000000, -4.171572875253819923 ) ) ;
#829 = ORIENTED_EDGE ( 'NONE', *, *, #815, .T. ) ;
#830 = CARTESIAN_POINT ( 'NONE',  ( 0.000000000000000000, 6.750000000000000000, 0.000000000000000000 ) ) ;
#831 = CARTESIAN_POINT ( 'NONE',  ( 0.000000000000000000, 14.52817459305202163, 0.000000000000000000 ) ) ;
#832 = CARTESIAN_POINT ( 'NONE',  ( 1.500000000000000444, 6.750000000000000000, -7.000000000000000000 ) ) ;
#833 = AXIS2_PLACEMENT_3D ( 'NONE', #451, #724, #1084 ) ;
#834 = ORIENTED_EDGE ( 'NONE', *, *, #815, .F. ) ;
#835 = ADVANCED_FACE ( 'NONE', ( #208 ), #185, .F. ) ;
#836 = EDGE_LOOP ( 'NONE', ( #650, #1117, #238, #1141 ) ) ;
#837 = DIRECTION ( 'NONE',  ( 0.000000000000000000, 0.000000000000000000, 1.000000000000000000 ) ) ;
#838 = CARTESIAN_POINT ( 'NONE',  ( 1.500000000000000444, 8.164213562373092259, -1.500000000000000444 ) ) ;
#839 = EDGE_CURVE ( 'NONE', #532, #219, #701, .T. ) ;
#840 = CARTESIAN_POINT ( 'NONE',  ( 3.367778697655221012E-16, 8.500000000000003553, 2.750000000000000000 ) ) ;
#841 = VERTEX_POINT ( 'NONE', #1033 ) ;
#842 = VERTEX_POINT ( 'NONE', #949 ) ;
#843 = AXIS2_PLACEMENT_3D ( 'NONE', #153, #1136, #787 ) ;
#844 = DIRECTION ( 'NONE',  ( 0.000000000000000000, 0.000000000000000000, -1.000000000000000000 ) ) ;
#845 = PLANE ( 'NONE',  #9 ) ;
#846 = ORIENTED_EDGE ( 'NONE', *, *, #340, .F. ) ;
#847 = CARTESIAN_POINT ( 'NONE',  ( -1.499999999999999556, 6.750000000000001776, -4.171572875253819923 ) ) ;
#848 = CIRCLE ( 'NONE', #272, 2.624999999999998668 ) ;
#849 = CARTESIAN_POINT ( 'NONE',  ( 0.000000000000000000, 6.750000000000000000, 0.000000000000000000 ) ) ;
#850 = ORIENTED_EDGE ( 'NONE', *, *, #1147, .F. ) ;
#851 = EDGE_CURVE ( 'NONE', #1049, #79, #880, .T. ) ;
#852 = AXIS2_PLACEMENT_3D ( 'NONE', #770, #295, #681 ) ;
#853 = DIRECTION ( 'NONE',  ( 1.000000000000000000, -0.000000000000000000, 0.000000000000000000 ) ) ;
#854 = DIRECTION ( 'NONE',  ( 1.146924612216070931E-16, -0.000000000000000000, 1.000000000000000000 ) ) ;
#855 = VERTEX_POINT ( 'NONE', #956 ) ;
#856 = DATE_AND_TIME ( #790, #176 ) ;
#857 = ORIENTED_EDGE ( 'NONE', *, *, #764, .F. ) ;
#858 = CARTESIAN_POINT ( 'NONE',  ( -7.000000000000000000, 6.750000000000000000, -7.000000000000000000 ) ) ;
#859 = CARTESIAN_POINT ( 'NONE',  ( 5.817072295949926440E-16, 0.4999999999999961142, 4.749999999999999112 ) ) ;
#860 = ORIENTED_EDGE ( 'NONE', *, *, #395, .F. ) ;
#861 = COORDINATED_UNIVERSAL_TIME_OFFSET ( 8, 0, .BEHIND. ) ;
#862 = ORIENTED_EDGE ( 'NONE', *, *, #159, .T. ) ;
#863 = CIRCLE ( 'NONE', #81, 1.553631470912111068 ) ;
#864 = PRODUCT_DEFINITION ( 'UNKNOWN', '', #25, #997 ) ;
#865 = CC_DESIGN_SECURITY_CLASSIFICATION ( #560, ( #25 ) ) ;
#866 = DIRECTION ( 'NONE',  ( 8.659560562354926695E-17, 0.7071067811865479058, -0.7071067811865470176 ) ) ;
#867 = CARTESIAN_POINT ( 'NONE',  ( 0.000000000000000000, 3.700000000000000178, -1.553631470912111068 ) ) ;
#868 = CARTESIAN_POINT ( 'NONE',  ( 0.000000000000000000, 5.700000000000000178, 0.000000000000000000 ) ) ;
#869 = DATE_AND_TIME ( #1122, #388 ) ;
#870 = EDGE_CURVE ( 'NONE', #1016, #492, #996, .T. ) ;
#871 = ORIENTED_EDGE ( 'NONE', *, *, #870, .F. ) ;
#872 = DIRECTION ( 'NONE',  ( 0.000000000000000000, 0.000000000000000000, 1.000000000000000000 ) ) ;
#873 = ADVANCED_FACE ( 'NONE', ( #392 ), #38, .T. ) ;
#874 = CARTESIAN_POINT ( 'NONE',  ( 0.000000000000000000, 8.750000000000000000, -5.000000000000012434 ) ) ;
#875 = ORIENTED_EDGE ( 'NONE', *, *, #533, .F. ) ;
#876 = PERSON_AND_ORGANIZATION_ROLE ( 'design_supplier' ) ;
#877 = ORIENTED_EDGE ( 'NONE', *, *, #183, .T. ) ;
#878 = DIRECTION ( 'NONE',  ( 0.000000000000000000, 1.000000000000000000, 0.000000000000000000 ) ) ;
#879 = DIRECTION ( 'NONE',  ( 0.000000000000000000, 0.000000000000000000, -1.000000000000000000 ) ) ;
#880 = CIRCLE ( 'NONE', #576, 1.553631470912111068 ) ;
#881 = VERTEX_POINT ( 'NONE', #496 ) ;
#882 = DATE_AND_TIME ( #329, #445 ) ;
#883 = EDGE_LOOP ( 'NONE', ( #310, #471, #479, #1063 ) ) ;
#884 = DIRECTION ( 'NONE',  ( 1.146924612216070931E-16, -0.000000000000000000, 1.000000000000000000 ) ) ;
#885 = DIRECTION ( 'NONE',  ( -0.000000000000000000, 1.000000000000000000, -0.000000000000000000 ) ) ;
#886 = CARTESIAN_POINT ( 'NONE',  ( 7.000000000000000000, 6.750000000000000000, -7.000000000000000000 ) ) ;
#887 = ORIENTED_EDGE ( 'NONE', *, *, #500, .T. ) ;
#888 = CARTESIAN_POINT ( 'NONE',  ( -5.585786437626911294, 8.164213562373095812, 21.83578643762691840 ) ) ;
#889 = PLANE ( 'NONE',  #182 ) ;
#890 = DIRECTION ( 'NONE',  ( 0.000000000000000000, 0.000000000000000000, 1.000000000000000000 ) ) ;
#891 = ORIENTED_EDGE ( 'NONE', *, *, #555, .T. ) ;
#892 = CARTESIAN_POINT ( 'NONE',  ( 1.902649807907111045E-16, 2.700000000000000178, 1.553631470912111068 ) ) ;
#893 = DIRECTION ( 'NONE',  ( 0.000000000000000000, 1.000000000000000000, 0.000000000000000000 ) ) ;
#894 = CARTESIAN_POINT ( 'NONE',  ( -5.585786437626911294, 8.164213562373095812, 21.83578643762691840 ) ) ;
#895 = TOROIDAL_SURFACE ( 'NONE', #381, 2.671572875253819035, 2.000000000000000000 ) ;
#896 = EDGE_LOOP ( 'NONE', ( #786, #181, #564, #877 ) ) ;
#897 = CARTESIAN_POINT ( 'NONE',  ( 0.000000000000000000, 6.750000000000000000, -2.375000000000000000 ) ) ;
#898 = VECTOR ( 'NONE', #936, 1000.000000000000000 ) ;
#899 = CARTESIAN_POINT ( 'NONE',  ( 2.083333333333313941, 15.83333333333334458, 14.16666666666669450 ) ) ;
#900 = ORIENTED_EDGE ( 'NONE', *, *, #870, .T. ) ;
#901 = VECTOR ( 'NONE', #655, 1000.000000000000000 ) ;
#902 = ADVANCED_FACE ( 'NONE', ( #775 ), #895, .T. ) ;
#903 = EDGE_CURVE ( 'NONE', #582, #298, #50, .T. ) ;
#904 = DIRECTION ( 'NONE',  ( 0.000000000000000000, 1.000000000000000000, 0.000000000000000000 ) ) ;
#905 = AXIS2_PLACEMENT_3D ( 'NONE', #1173, #362, #374 ) ;
#906 = DIRECTION ( 'NONE',  ( 0.000000000000000000, 0.000000000000000000, 1.000000000000000000 ) ) ;
#907 = AXIS2_PLACEMENT_3D ( 'NONE', #758, #416, #1113 ) ;
#908 = DIRECTION ( 'NONE',  ( 0.000000000000000000, 0.000000000000000000, -1.000000000000000000 ) ) ;
#909 = ORIENTED_EDGE ( 'NONE', *, *, #211, .F. ) ;
#910 = FACE_OUTER_BOUND ( 'NONE', #972, .T. ) ;
#911 = CARTESIAN_POINT ( 'NONE',  ( -4.171572875253818147, 8.750000000000000000, -1.500000000000000000 ) ) ;
#912 = CIRCLE ( 'NONE', #398, 2.457106781186553679 ) ;
#913 = VECTOR ( 'NONE', #1153, 1000.000000000000000 ) ;
#914 = CARTESIAN_POINT ( 'NONE',  ( 0.000000000000000000, 0.000000000000000000, -2.624999999999998668 ) ) ;
#915 = EDGE_CURVE ( 'NONE', #842, #44, #136, .T. ) ;
#916 = EDGE_LOOP ( 'NONE', ( #774, #799, #418, #850 ) ) ;
#917 = CYLINDRICAL_SURFACE ( 'NONE', #37, 4.749999999999999112 ) ;
#918 = AXIS2_PLACEMENT_3D ( 'NONE', #947, #924, #745 ) ;
#919 = FACE_OUTER_BOUND ( 'NONE', #777, .T. ) ;
#920 = EDGE_CURVE ( 'NONE', #44, #344, #801, .T. ) ;
#921 = CARTESIAN_POINT ( 'NONE',  ( -1.221450419903109817E-14, 8.249999999999877431, 21.75000000000013500 ) ) ;
#922 = ORIENTED_EDGE ( 'NONE', *, *, #646, .T. ) ;
#923 = VERTEX_POINT ( 'NONE', #892 ) ;
#924 = DIRECTION ( 'NONE',  ( 0.000000000000000000, 1.000000000000000000, 0.000000000000000000 ) ) ;
#925 = ADVANCED_FACE ( 'NONE', ( #705 ), #687, .T. ) ;
#926 = FACE_OUTER_BOUND ( 'NONE', #816, .T. ) ;
#927 = CARTESIAN_POINT ( 'NONE',  ( 0.000000000000000000, 6.750000000000000000, 0.000000000000000000 ) ) ;
#928 = EDGE_LOOP ( 'NONE', ( #193, #146, #695, #939 ) ) ;
#929 = B_SPLINE_CURVE_WITH_KNOTS ( 'NONE', 3,
 ( #627, #633, #434, #623, #56, #1152 ),
 .UNSPECIFIED., .F., .F.,
 ( 4, 2, 4 ),
 ( 0.000000000000000000, 0.0002918632620329762164, 0.0005837265240659524328 ),
 .UNSPECIFIED. ) ;
#930 = CARTESIAN_POINT ( 'NONE',  ( 0.000000000000000000, 3.700000000000000178, 0.000000000000000000 ) ) ;
#931 = DIRECTION ( 'NONE',  ( 1.000000000000000000, -0.000000000000000000, 0.000000000000000000 ) ) ;
#932 = ORIENTED_EDGE ( 'NONE', *, *, #268, .F. ) ;
#933 = AXIS2_PLACEMENT_3D ( 'NONE', #780, #75, #1076 ) ;
#934 = MANIFOLD_SOLID_BREP ( 'Chamfer7', #342 ) ;
#935 = LINE ( 'NONE', #301, #454 ) ;
#936 = DIRECTION ( 'NONE',  ( 8.659560562354895880E-17, -0.7071067811865505703, 0.7071067811865444641 ) ) ;
#937 = ADVANCED_FACE ( 'NONE', ( #250, #259 ), #987, .T. ) ;
#938 = EDGE_CURVE ( 'NONE', #389, #1006, #170, .T. ) ;
#939 = ORIENTED_EDGE ( 'NONE', *, *, #498, .F. ) ;
#940 = EDGE_CURVE ( 'NONE', #757, #40, #929, .T. ) ;
#941 = EDGE_CURVE ( 'NONE', #226, #287, #726, .T. ) ;
#942 = DIRECTION ( 'NONE',  ( 0.000000000000000000, 0.000000000000000000, 1.000000000000000000 ) ) ;
#943 = AXIS2_PLACEMENT_3D ( 'NONE', #455, #184, #1000 ) ;
#944 = CARTESIAN_POINT ( 'NONE',  ( 0.000000000000000000, 2.700000000000000178, 0.000000000000000000 ) ) ;
#945 = VECTOR ( 'NONE', #751, 1000.000000000000000 ) ;
#946 = ORIENTED_EDGE ( 'NONE', *, *, #57, .T. ) ;
#947 = CARTESIAN_POINT ( 'NONE',  ( 0.000000000000000000, 8.249999999999992895, 20.00000000000000000 ) ) ;
#948 = ORIENTED_EDGE ( 'NONE', *, *, #590, .T. ) ;
#949 = CARTESIAN_POINT ( 'NONE',  ( -4.171572875253816370, 8.750000000000000000, 21.25000000000001066 ) ) ;
#950 = DIRECTION ( 'NONE',  ( 0.5773502691896250649, -0.5773502691896272854, 0.5773502691896250649 ) ) ;
#951 = VECTOR ( 'NONE', #993, 1000.000000000000000 ) ;
#952 = EDGE_LOOP ( 'NONE', ( #900, #269 ) ) ;
#953 =( NAMED_UNIT ( * ) PLANE_ANGLE_UNIT ( ) SI_UNIT ( $, .RADIAN. ) );
#954 = EDGE_CURVE ( 'NONE', #1006, #389, #420, .T. ) ;
#955 = ORIENTED_EDGE ( 'NONE', *, *, #954, .F. ) ;
#956 = CARTESIAN_POINT ( 'NONE',  ( -2.115389735758620215, 8.750000000000000000, 21.25000000000001066 ) ) ;
#957 = DIRECTION ( 'NONE',  ( 0.000000000000000000, 1.000000000000000000, 0.000000000000000000 ) ) ;
#958 = ADVANCED_FACE ( 'NONE', ( #1156, #326 ), #718, .T. ) ;
#959 = DIRECTION ( 'NONE',  ( 0.000000000000000000, 0.000000000000000000, 1.000000000000000000 ) ) ;
#960 = ORIENTED_EDGE ( 'NONE', *, *, #1039, .T. ) ;
#961 = AXIS2_PLACEMENT_3D ( 'NONE', #302, #1040, #963 ) ;
#962 = CARTESIAN_POINT ( 'NONE',  ( 0.000000000000000000, 8.249999999999992895, 20.00000000000000000 ) ) ;
#963 = DIRECTION ( 'NONE',  ( 0.000000000000000000, 0.000000000000000000, 1.000000000000000000 ) ) ;
#964 = ORIENTED_EDGE ( 'NONE', *, *, #517, .F. ) ;
#965 = DATE_TIME_ROLE ( 'creation_date' ) ;
#966 = ORIENTED_EDGE ( 'NONE', *, *, #4, .T. ) ;
#967 = VECTOR ( 'NONE', #317, 1000.000000000000000 ) ;
#968 = CARTESIAN_POINT ( 'NONE',  ( -4.709095079383197380, 8.750000000000000000, 21.25000000000001066 ) ) ;
#969 = LINE ( 'NONE', #700, #436 ) ;
#970 = ORIENTED_EDGE ( 'NONE', *, *, #30, .F. ) ;
#971 = PERSON_AND_ORGANIZATION ( #810, #791 ) ;
#972 = EDGE_LOOP ( 'NONE', ( #680, #578, #202, #74 ) ) ;
#973 = VECTOR ( 'NONE', #526, 1000.000000000000000 ) ;
#974 = CIRCLE ( 'NONE', #617, 1.100000000000000311 ) ;
#975 = DIRECTION ( 'NONE',  ( 0.000000000000000000, 0.000000000000000000, 1.000000000000000000 ) ) ;
#976 = ADVANCED_FACE ( 'NONE', ( #712 ), #1137, .T. ) ;
#977 = CARTESIAN_POINT ( 'NONE',  ( 0.000000000000000000, 2.700000000000000178, 0.000000000000000000 ) ) ;
#978 = DIRECTION ( 'NONE',  ( -0.000000000000000000, -1.000000000000000000, -0.000000000000000000 ) ) ;
#979 = CIRCLE ( 'NONE', #523, 2.375000000000000000 ) ;
#980 = ADVANCED_FACE ( 'NONE', ( #691 ), #339, .T. ) ;
#981 = EDGE_LOOP ( 'NONE', ( #337, #162 ) ) ;
#982 = CARTESIAN_POINT ( 'NONE',  ( 0.000000000000000000, 14.52817459305202163, 0.000000000000000000 ) ) ;
#983 = CARTESIAN_POINT ( 'NONE',  ( -1.090277072138540859, 8.409623669163662996, 21.59037633083635299 ) ) ;
#984 = CARTESIAN_POINT ( 'NONE',  ( 1.573173141822895138, 8.603553390593274841, 21.39644660940673759 ) ) ;
#985 = VERTEX_POINT ( 'NONE', #242 ) ;
#986 = CONICAL_SURFACE ( 'NONE', #470, 1.750000000000001554, 0.7853981633974477239 ) ;
#987 = PLANE ( 'NONE',  #18 ) ;
#988 = LINE ( 'NONE', #256, #400 ) ;
#989 = FACE_OUTER_BOUND ( 'NONE', #1070, .T. ) ;
#990 = ORIENTED_EDGE ( 'NONE', *, *, #1142, .F. ) ;
#991 = CC_DESIGN_PERSON_AND_ORGANIZATION_ASSIGNMENT ( #143, #876, ( #25 ) ) ;
#992 = CARTESIAN_POINT ( 'NONE',  ( -5.585786437626916623, 8.164213562373094035, 6.406475943897038805E-16 ) ) ;
#993 = DIRECTION ( 'NONE',  ( 8.659560562354955045E-17, 0.7071067811865456854, -0.7071067811865493491 ) ) ;
#994 = LINE ( 'NONE', #180, #1172 ) ;
#995 = ADVANCED_FACE ( 'NONE', ( #164 ), #346, .T. ) ;
#996 = CIRCLE ( 'NONE', #538, 2.999999999999999112 ) ;
#997 = DESIGN_CONTEXT ( 'detailed design', #319, 'design' ) ;
#998 = VERTEX_POINT ( 'NONE', #616 ) ;
#999 = ADVANCED_FACE ( 'NONE', ( #64 ), #428, .F. ) ;
#1000 = DIRECTION ( 'NONE',  ( -1.000000000000000000, 0.000000000000000000, 1.146924612216070931E-16 ) ) ;
#1001 = LINE ( 'NONE', #739, #945 ) ;
#1002 = DIRECTION ( 'NONE',  ( 0.000000000000000000, 0.7071067811865487940, 0.7071067811865463515 ) ) ;
#1003 = VERTEX_POINT ( 'NONE', #158 ) ;
#1004 = PLANE ( 'NONE',  #698 ) ;
#1005 = CARTESIAN_POINT ( 'NONE',  ( 2.576109926625621720E-16, 8.603553390593273065, 17.89644660940671983 ) ) ;
#1006 = VERTEX_POINT ( 'NONE', #528 ) ;
#1007 = CARTESIAN_POINT ( 'NONE',  ( 0.000000000000000000, 8.750000000000000000, 2.999999999999999112 ) ) ;
#1008 = CARTESIAN_POINT ( 'NONE',  ( 2.143131898507868544E-16, 7.550000000000000711, 18.25000000000000000 ) ) ;
#1009 = CONICAL_SURFACE ( 'NONE', #1025, 2.750000000000000000, 0.7853981633974533860 ) ;
#1010 = CARTESIAN_POINT ( 'NONE',  ( -1.499999999999999778, 8.164213562373092259, -1.500000000000000444 ) ) ;
#1011 = ORIENTED_EDGE ( 'NONE', *, *, #920, .F. ) ;
#1012 = DIRECTION ( 'NONE',  ( 1.000000000000000000, 0.000000000000000000, -1.084202172485504434E-16 ) ) ;
#1013 = DIRECTION ( 'NONE',  ( 0.000000000000000000, -1.000000000000000000, 0.000000000000000000 ) ) ;
#1014 = DIRECTION ( 'NONE',  ( 1.000000000000000000, 0.000000000000000000, 0.000000000000000000 ) ) ;
#1015 = VECTOR ( 'NONE', #320, 1000.000000000000000 ) ;
#1016 = VERTEX_POINT ( 'NONE', #1007 ) ;
#1017 = CARTESIAN_POINT ( 'NONE',  ( 5.585786437626921952, 8.164213562373092259, 21.83578643762691840 ) ) ;
#1018 = CARTESIAN_POINT ( 'NONE',  ( 0.000000000000000000, 8.750000000000000000, 21.25000000000001066 ) ) ;
#1019 = AXIS2_PLACEMENT_3D ( 'NONE', #114, #489, #484 ) ;
#1020 = VERTEX_POINT ( 'NONE', #270 ) ;
#1021 = PRODUCT_RELATED_PRODUCT_CATEGORY ( 'detail', '', ( #220 ) ) ;
#1022 = ADVANCED_FACE ( 'NONE', ( #379 ), #154, .F. ) ;
#1023 = CARTESIAN_POINT ( 'NONE',  ( 0.000000000000000000, 2.700000000000000178, 0.000000000000000000 ) ) ;
#1024 = CARTESIAN_POINT ( 'NONE',  ( 0.000000000000000000, 6.750000000000000000, 0.000000000000000000 ) ) ;
#1025 = AXIS2_PLACEMENT_3D ( 'NONE', #547, #1062, #246 ) ;
#1026 = ORIENTED_EDGE ( 'NONE', *, *, #1043, .T. ) ;
#1027 = EDGE_CURVE ( 'NONE', #288, #207, #979, .T. ) ;
#1028 = ORIENTED_EDGE ( 'NONE', *, *, #941, .F. ) ;
#1029 = DIRECTION ( 'NONE',  ( 0.000000000000000000, 0.000000000000000000, 1.000000000000000000 ) ) ;
#1030 = DIRECTION ( 'NONE',  ( 0.000000000000000000, 1.000000000000000000, 0.000000000000000000 ) ) ;
#1031 = VERTEX_POINT ( 'NONE', #104 ) ;
#1032 = DIRECTION ( 'NONE',  ( 0.000000000000000000, -1.000000000000000000, 0.000000000000000000 ) ) ;
#1033 = CARTESIAN_POINT ( 'NONE',  ( 0.000000000000000000, 0.4999999999999961142, -4.749999999999999112 ) ) ;
#1034 = LINE ( 'NONE', #867, #42 ) ;
#1035 = VECTOR ( 'NONE', #1109, 1000.000000000000000 ) ;
#1036 = EDGE_LOOP ( 'NONE', ( #459, #966 ) ) ;
#1037 = ORIENTED_EDGE ( 'NONE', *, *, #938, .T. ) ;
#1038 = DIRECTION ( 'NONE',  ( 0.000000000000000000, 0.000000000000000000, -1.000000000000000000 ) ) ;
#1039 = EDGE_CURVE ( 'NONE', #79, #923, #676, .T. ) ;
#1040 = DIRECTION ( 'NONE',  ( -0.000000000000000000, -1.000000000000000000, -0.000000000000000000 ) ) ;
#1041 = CARTESIAN_POINT ( 'NONE',  ( 0.000000000000000000, 5.700000000000000178, 0.000000000000000000 ) ) ;
#1042 = APPROVAL_STATUS ( 'not_yet_approved' ) ;
#1043 = EDGE_CURVE ( 'NONE', #316, #1016, #825, .T. ) ;
#1044 = ORIENTED_EDGE ( 'NONE', *, *, #390, .T. ) ;
#1045 = FACE_OUTER_BOUND ( 'NONE', #836, .T. ) ;
#1046 = VECTOR ( 'NONE', #69, 1000.000000000000000 ) ;
#1047 = DIRECTION ( 'NONE',  ( -1.000000000000000000, 0.000000000000000000, 1.084202172485504434E-16 ) ) ;
#1048 = ORIENTED_EDGE ( 'NONE', *, *, #446, .T. ) ;
#1049 = VERTEX_POINT ( 'NONE', #472 ) ;
#1050 = VECTOR ( 'NONE', #854, 1000.000000000000000 ) ;
#1051 = CARTESIAN_POINT ( 'NONE',  ( 0.000000000000000000, 2.700000000000000178, 0.000000000000000000 ) ) ;
#1052 = CC_DESIGN_APPROVAL ( #763, ( #864 ) ) ;
#1053 = DIRECTION ( 'NONE',  ( 0.000000000000000000, 0.000000000000000000, 1.000000000000000000 ) ) ;
#1054 = ORIENTED_EDGE ( 'NONE', *, *, #817, .T. ) ;
#1055 = PERSON_AND_ORGANIZATION ( #810, #791 ) ;
#1056 = AXIS2_PLACEMENT_3D ( 'NONE', #831, #1013, #473 ) ;
#1057 = ORIENTED_EDGE ( 'NONE', *, *, #268, .T. ) ;
#1058 = AXIS2_PLACEMENT_3D ( 'NONE', #1023, #31, #1038 ) ;
#1059 = DIRECTION ( 'NONE',  ( 0.000000000000000000, -0.000000000000000000, 1.000000000000000000 ) ) ;
#1060 = ADVANCED_FACE ( 'NONE', ( #651 ), #1, .T. ) ;
#1061 = DIRECTION ( 'NONE',  ( -0.000000000000000000, -1.000000000000000000, -0.000000000000000000 ) ) ;
#1062 = DIRECTION ( 'NONE',  ( 0.000000000000000000, 1.000000000000000000, 0.000000000000000000 ) ) ;
#1063 = ORIENTED_EDGE ( 'NONE', *, *, #340, .T. ) ;
#1064 = VECTOR ( 'NONE', #1068, 1000.000000000000000 ) ;
#1065 = AXIS2_PLACEMENT_3D ( 'NONE', #849, #588, #28 ) ;
#1066 = DIRECTION ( 'NONE',  ( 0.000000000000000000, 0.000000000000000000, -1.000000000000000000 ) ) ;
#1067 = FACE_BOUND ( 'NONE', #102, .T. ) ;
#1068 = DIRECTION ( 'NONE',  ( 1.000000000000000000, -0.000000000000000000, -0.000000000000000000 ) ) ;
#1069 = AXIS2_PLACEMENT_3D ( 'NONE', #447, #460, #1012 ) ;
#1070 = EDGE_LOOP ( 'NONE', ( #597, #887, #464, #665 ) ) ;
#1071 = CARTESIAN_POINT ( 'NONE',  ( 1.500000000000000444, 8.750000000000000000, -1.500000000000000444 ) ) ;
#1072 = AXIS2_PLACEMENT_3D ( 'NONE', #497, #39, #115 ) ;
#1073 = CARTESIAN_POINT ( 'NONE',  ( 0.000000000000000000, 6.750000000000000000, -4.749999999999999112 ) ) ;
#1074 = CARTESIAN_POINT ( 'NONE',  ( 0.000000000000000000, 8.750000000000000000, 18.89999999999999858 ) ) ;
#1075 = ORIENTED_EDGE ( 'NONE', *, *, #266, .T. ) ;
#1076 = DIRECTION ( 'NONE',  ( 0.000000000000000000, 0.000000000000000000, 1.000000000000000000 ) ) ;
#1077 = ADVANCED_FACE ( 'NONE', ( #558 ), #917, .T. ) ;
#1078 = FACE_OUTER_BOUND ( 'NONE', #792, .T. ) ;
#1079 = LINE ( 'NONE', #899, #1092 ) ;
#1080 = EDGE_CURVE ( 'NONE', #626, #328, #251, .T. ) ;
#1081 = ORIENTED_EDGE ( 'NONE', *, *, #520, .T. ) ;
#1082 = DIRECTION ( 'NONE',  ( -0.000000000000000000, -1.000000000000000000, -0.000000000000000000 ) ) ;
#1083 = DIRECTION ( 'NONE',  ( 0.000000000000000000, 0.000000000000000000, 1.000000000000000000 ) ) ;
#1084 = DIRECTION ( 'NONE',  ( 0.000000000000000000, 0.000000000000000000, 1.000000000000000000 ) ) ;
#1085 = AXIS2_PLACEMENT_3D ( 'NONE', #439, #878, #975 ) ;
#1086 = EDGE_LOOP ( 'NONE', ( #579, #697, #1075, #1028 ) ) ;
#1087 = CYLINDRICAL_SURFACE ( 'NONE', #530, 1.750000000000001554 ) ;
#1088 = CYLINDRICAL_SURFACE ( 'NONE', #1150, 4.749999999999999112 ) ;
#1089 = ORIENTED_EDGE ( 'NONE', *, *, #178, .T. ) ;
#1090 = CARTESIAN_POINT ( 'NONE',  ( 0.000000000000000000, 0.4999999999999961142, 0.000000000000000000 ) ) ;
#1091 = CIRCLE ( 'NONE', #548, 1.100000000000000311 ) ;
#1092 = VECTOR ( 'NONE', #261, 1000.000000000000000 ) ;
#1093 = DIRECTION ( 'NONE',  ( 0.000000000000000000, 0.000000000000000000, 1.000000000000000000 ) ) ;
#1094 = CARTESIAN_POINT ( 'NONE',  ( 1.091386224710339636, 8.410072892421620594, 21.58992710757838651 ) ) ;
#1095 = EDGE_LOOP ( 'NONE', ( #1165, #1112, #1026, #414 ) ) ;
#1096 = DIRECTION ( 'NONE',  ( 0.000000000000000000, 0.000000000000000000, 1.000000000000000000 ) ) ;
#1097 = CARTESIAN_POINT ( 'NONE',  ( 0.000000000000000000, 8.750000000000000000, 0.000000000000000000 ) ) ;
#1098 = DIRECTION ( 'NONE',  ( 0.000000000000000000, 0.000000000000000000, -1.000000000000000000 ) ) ;
#1099 = ORIENTED_EDGE ( 'NONE', *, *, #500, .F. ) ;
#1100 = ORIENTED_EDGE ( 'NONE', *, *, #728, .F. ) ;
#1101 = DIRECTION ( 'NONE',  ( 0.000000000000000000, 0.000000000000000000, -1.000000000000000000 ) ) ;
#1102 = DIRECTION ( 'NONE',  ( 0.000000000000000000, 0.000000000000000000, 1.000000000000000000 ) ) ;
#1103 = DIRECTION ( 'NONE',  ( -0.000000000000000000, -1.000000000000000000, -0.000000000000000000 ) ) ;
#1104 = CIRCLE ( 'NONE', #750, 1.553631470912111068 ) ;
#1105 = ORIENTED_EDGE ( 'NONE', *, *, #502, .F. ) ;
#1106 = AXIS2_PLACEMENT_3D ( 'NONE', #1171, #1082, #13 ) ;
#1107 = LINE ( 'NONE', #593, #336 ) ;
#1108 = EDGE_CURVE ( 'NONE', #804, #501, #305, .T. ) ;
#1109 = DIRECTION ( 'NONE',  ( 0.000000000000000000, -0.7071067811865505703, -0.7071067811865444641 ) ) ;
#1110 = EDGE_CURVE ( 'NONE', #522, #308, #1118, .T. ) ;
#1111 = VECTOR ( 'NONE', #677, 1000.000000000000114 ) ;
#1112 = ORIENTED_EDGE ( 'NONE', *, *, #390, .F. ) ;
#1113 = DIRECTION ( 'NONE',  ( 0.000000000000000000, 0.000000000000000000, 1.000000000000000000 ) ) ;
#1114 = CARTESIAN_POINT ( 'NONE',  ( 0.000000000000000000, 8.603553390593273065, 20.00000000000000000 ) ) ;
#1115 = AXIS2_PLACEMENT_3D ( 'NONE', #1148, #978, #78 ) ;
#1116 = CIRCLE ( 'NONE', #762, 4.749999999999999112 ) ;
#1117 = ORIENTED_EDGE ( 'NONE', *, *, #1160, .F. ) ;
#1118 = CIRCLE ( 'NONE', #622, 1.100000000000000311 ) ;
#1119 = CARTESIAN_POINT ( 'NONE',  ( 0.000000000000000000, 5.700000000000000178, 0.000000000000000000 ) ) ;
#1120 = DIRECTION ( 'NONE',  ( 0.000000000000000000, 1.000000000000000000, 0.000000000000000000 ) ) ;
#1121 = ORIENTED_EDGE ( 'NONE', *, *, #938, .F. ) ;
#1122 = CALENDAR_DATE ( 2026, 28, 7 ) ;
#1123 = EDGE_CURVE ( 'NONE', #841, #443, #97, .T. ) ;
#1124 = EDGE_LOOP ( 'NONE', ( #124, #402, #591, #1011 ) ) ;
#1125 = CYLINDRICAL_SURFACE ( 'NONE', #240, 2.000000000000000000 ) ;
#1126 = DIRECTION ( 'NONE',  ( -0.000000000000000000, 1.000000000000000000, -0.000000000000000000 ) ) ;
#1127 = ADVANCED_FACE ( 'NONE', ( #99 ), #83, .T. ) ;
#1128 = CIRCLE ( 'NONE', #585, 4.085786437626916623 ) ;
#1129 = ORIENTED_EDGE ( 'NONE', *, *, #740, .F. ) ;
#1130 = ORIENTED_EDGE ( 'NONE', *, *, #1110, .F. ) ;
#1131 = LINE ( 'NONE', #203, #967 ) ;
#1132 = CARTESIAN_POINT ( 'NONE',  ( 0.000000000000000000, 7.550000000000000711, 21.75000000000000355 ) ) ;
#1133 = DIRECTION ( 'NONE',  ( 0.000000000000000000, 1.000000000000000000, 0.000000000000000000 ) ) ;
#1134 = COORDINATED_UNIVERSAL_TIME_OFFSET ( 8, 0, .BEHIND. ) ;
#1135 = EDGE_LOOP ( 'NONE', ( #621, #662 ) ) ;
#1136 = DIRECTION ( 'NONE',  ( 0.000000000000000000, 1.000000000000000000, 0.000000000000000000 ) ) ;
#1137 = CONICAL_SURFACE ( 'NONE', #638, 3.500000000000011990, 0.7853981633974465026 ) ;
#1138 = CARTESIAN_POINT ( 'NONE',  ( -1.655955440460418426, 8.640762215971971472, 21.35923778402067796 ) ) ;
#1139 = ORIENTED_EDGE ( 'NONE', *, *, #109, .F. ) ;
#1140 = EDGE_CURVE ( 'NONE', #1170, #749, #603, .T. ) ;
#1141 = ORIENTED_EDGE ( 'NONE', *, *, #57, .F. ) ;
#1142 = EDGE_CURVE ( 'NONE', #287, #226, #848, .T. ) ;
#1143 = DIRECTION ( 'NONE',  ( 0.000000000000000000, 0.000000000000000000, -1.000000000000000000 ) ) ;
#1144 = CC_DESIGN_APPROVAL ( #313, ( #25 ) ) ;
#1145 = CARTESIAN_POINT ( 'NONE',  ( -0.5560920484422166021, 8.283985708065044307, 21.71601429193496813 ) ) ;
#1146 = ADVANCED_FACE ( 'NONE', ( #910 ), #8, .T. ) ;
#1147 = EDGE_CURVE ( 'NONE', #1170, #443, #727, .T. ) ;
#1148 = CARTESIAN_POINT ( 'NONE',  ( 0.000000000000000000, 0.2500000000000011102, 0.000000000000000000 ) ) ;
#1149 = APPLICATION_PROTOCOL_DEFINITION ( 'international standard', 'config_control_design', 1994, #319 ) ;
#1150 = AXIS2_PLACEMENT_3D ( 'NONE', #1024, #457, #1098 ) ;
#1151 = EDGE_LOOP ( 'NONE', ( #508, #262 ) ) ;
#1152 = CARTESIAN_POINT ( 'NONE',  ( 1.573173141822895138, 8.603553390593274841, 21.39644660940673759 ) ) ;
#1153 = DIRECTION ( 'NONE',  ( 0.000000000000000000, -1.000000000000000000, 0.000000000000000000 ) ) ;
#1154 = CARTESIAN_POINT ( 'NONE',  ( -1.221450419903109817E-14, 8.249999999999877431, 21.75000000000013500 ) ) ;
#1155 = ORIENTED_EDGE ( 'NONE', *, *, #30, .T. ) ;
#1156 = FACE_BOUND ( 'NONE', #683, .T. ) ;
#1157 = DIRECTION ( 'NONE',  ( 0.000000000000000000, -0.000000000000000000, 1.000000000000000000 ) ) ;
#1158 = DIRECTION ( 'NONE',  ( 0.000000000000000000, 0.000000000000000000, -1.000000000000000000 ) ) ;
#1159 = ORIENTED_EDGE ( 'NONE', *, *, #781, .T. ) ;
#1160 = EDGE_CURVE ( 'NONE', #998, #219, #544, .T. ) ;
#1161 = DIRECTION ( 'NONE',  ( 0.000000000000000000, -1.000000000000000000, 0.000000000000000000 ) ) ;
#1162 = CIRCLE ( 'NONE', #714, 2.000000000000000000 ) ;
#1163 = CARTESIAN_POINT ( 'NONE',  ( 0.000000000000000000, 0.000000000000000000, 0.000000000000000000 ) ) ;
#1164 = DIRECTION ( 'NONE',  ( 1.146924612216070931E-16, -0.000000000000000000, 1.000000000000000000 ) ) ;
#1165 = ORIENTED_EDGE ( 'NONE', *, *, #197, .F. ) ;
#1166 = DIRECTION ( 'NONE',  ( 0.000000000000000000, 1.000000000000000000, 0.000000000000000000 ) ) ;
#1167 = CIRCLE ( 'NONE', #393, 1.750000000000001554 ) ;
#1168 = DIRECTION ( 'NONE',  ( 0.000000000000000000, 0.000000000000000000, -1.000000000000000000 ) ) ;
#1169 = CARTESIAN_POINT ( 'NONE',  ( 0.000000000000000000, 6.750000000000000000, 0.000000000000000000 ) ) ;
#1170 = VERTEX_POINT ( 'NONE', #818 ) ;
#1171 = CARTESIAN_POINT ( 'NONE',  ( 0.000000000000000000, 0.000000000000000000, 0.000000000000000000 ) ) ;
#1172 = VECTOR ( 'NONE', #797, 1000.000000000000000 ) ;
#1173 = CARTESIAN_POINT ( 'NONE',  ( 0.000000000000000000, 8.500000000000003553, 0.000000000000000000 ) ) ;
#1174 = PLANE ( 'NONE',  #736 ) ;
ENDSEC;
END-ISO-10303-21;
